<?xml version="1.0" encoding="UTF-8" standalone="no"?>
<!-- Created with Inkscape (http://www.inkscape.org/) -->

<svg
   xmlns:dc="http://purl.org/dc/elements/1.1/"
   xmlns:cc="http://creativecommons.org/ns#"
   xmlns:rdf="http://www.w3.org/1999/02/22-rdf-syntax-ns#"
   xmlns:svg="http://www.w3.org/2000/svg"
   xmlns="http://www.w3.org/2000/svg"
   xmlns:sodipodi="http://sodipodi.sourceforge.net/DTD/sodipodi-0.dtd"
   xmlns:inkscape="http://www.inkscape.org/namespaces/inkscape"
   width="210mm"
   height="297mm"
   viewBox="0 0 744.09448819 1052.3622047"
   id="svg4630"
   version="1.1"
   inkscape:version="0.91 r13725"
   sodipodi:docname="base_final.svg">
  <defs
     id="defs4632" />
  <sodipodi:namedview
     id="base"
     pagecolor="#ffffff"
     bordercolor="#666666"
     borderopacity="1.0"
     inkscape:pageopacity="0.0"
     inkscape:pageshadow="2"
     inkscape:zoom="0.49497475"
     inkscape:cx="556.28342"
     inkscape:cy="378.43754"
     inkscape:document-units="px"
     inkscape:current-layer="layer1"
     showgrid="false"
     inkscape:window-width="1366"
     inkscape:window-height="745"
     inkscape:window-x="-8"
     inkscape:window-y="-8"
     inkscape:window-maximized="1" />
  <metadata
     id="metadata4635">
    <rdf:RDF>
      <cc:Work
         rdf:about="">
        <dc:format>image/svg+xml</dc:format>
        <dc:type
           rdf:resource="http://purl.org/dc/dcmitype/StillImage" />
        <dc:title></dc:title>
      </cc:Work>
    </rdf:RDF>
  </metadata>
  <g
     inkscape:label="Layer 1"
     inkscape:groupmode="layer"
     id="layer1">
    <g
       id="g5282"
       transform="translate(7.6895227,74.679235)">
      <path
         id="path4170"
         d="m 435.33591,801.43797 a 5.314961,5.314961 0 1 0 -10.6299,0 5.314961,5.314961 0 1 0 10.6299,0 z"
         style="fill:none;stroke:#000000"
         inkscape:connector-curvature="0" />
      <path
         id="path4172"
         d="m 62.875279,408.77443 a 5.314965,5.314965 0 1 0 -10.629926,0 5.314965,5.314965 0 0 0 10.629926,0 z"
         style="fill:none;stroke:#000000"
         inkscape:connector-curvature="0" />
      <path
         id="path4174"
         d="m 589.16221,282.54585 a 5.314961,5.314961 0 1 0 -10.6299,0 5.314961,5.314961 0 1 0 10.6299,0 z"
         style="fill:none;stroke:#000000"
         inkscape:connector-curvature="0" />
      <path
         id="path4192"
         d="m 429.39711,219.47385 a 6.20079,6.20079 0 1 0 -12.4015,0 6.20079,6.20079 0 1 0 12.4015,0 z"
         style="fill:none;stroke:#000000"
         inkscape:connector-curvature="0" />
      <path
         id="path4194"
         d="m 287.66491,219.47385 a 6.2008,6.2008 0 1 0 -12.4016,0 6.2008,6.2008 0 0 0 12.4016,0 z"
         style="fill:none;stroke:#000000"
         inkscape:connector-curvature="0" />
      <path
         id="path4196"
         d="m 429.33591,424.16931 a 6.2008,6.2008 0 1 0 -12.4016,0 6.2008,6.2008 0 0 0 12.4016,0 z"
         style="fill:none;stroke:#000000"
         inkscape:connector-curvature="0" />
      <path
         id="path4198"
         d="m 296.46191,424.16931 a 6.2008,6.2008 0 1 0 -12.4016,0 6.2008,6.2008 0 0 0 12.4016,0 z"
         style="fill:none;stroke:#000000"
         inkscape:connector-curvature="0" />
      <path
         id="path4200"
         d="m 429.33591,557.04337 a 6.2008,6.2008 0 1 0 -12.4016,0 6.2008,6.2008 0 0 0 12.4016,0 z"
         style="fill:none;stroke:#000000"
         inkscape:connector-curvature="0" />
      <path
         id="path4202"
         d="m 296.46191,557.04337 a 6.2008,6.2008 0 1 0 -12.4016,0 6.2008,6.2008 0 0 0 12.4016,0 z"
         style="fill:none;stroke:#000000"
         inkscape:connector-curvature="0" />
      <path
         id="path4224"
         d="m 247.04201,339.30427 212.5985,0 0,-10.62992 -212.5985,0 0,10.62992 z"
         style="fill:none;stroke:#000000"
         inkscape:connector-curvature="0" />
      <path
         id="path4226"
         d="m 254.64521,666.49787 212.5984,0 0,-10.63 -212.5984,0 0,10.63 z"
         style="fill:none;stroke:#000000"
         inkscape:connector-curvature="0" />
      <path
         id="path4230"
         d="m 512.74191,576.46822 0,46.063 10.9842,0 0,-46.063 -10.9842,0 z"
         style="fill:none;stroke:#000000"
         inkscape:connector-curvature="0" />
      <path
         id="path4232"
         d="m 201.63951,622.53122 0,-46.063 -10.9842,0 0,46.063 10.9842,0 z"
         style="fill:none;stroke:#000000"
         inkscape:connector-curvature="0" />
      <path
         id="path4236"
         d="m 96.970989,536.07737 -92.0619761,0 C -6.0274171,435.99804 26.124943,335.99129 93.335259,261.03637 160.54561,186.08144 256.46771,143.25573 357.14281,143.25573 c 100.6751,0 196.5973,42.82571 263.8077,117.78064 67.2103,74.95492 99.3626,174.96167 88.4262,275.041 l -4.1054,0 -88.5827,0 -14.6554,-0.29923 0,40.69008 -10.9842,0 0,46.063 10.9842,0 0,128.66195 -0.1947,2.66385 c -65.8297,62.86253 -153.5926,98.17846 -245.1562,98.05945 -91.2411,-0.11859 -178.6168,-35.41294 -244.20573,-98.0313 l -0.1284,-1.42931 0,-129.92464 10.98423,0 0,-46.063 -10.98423,0 0,-40.69008 z"
         style="fill:none;stroke:#000000"
         inkscape:connector-curvature="0"
         sodipodi:nodetypes="ccsssccccccccccscccccccc" />
      <path
         id="path4238"
         d="m 627.82231,861.09777 45.7087,0"
         style="fill:none;stroke:#000000"
         inkscape:connector-curvature="0" />
      <path
         id="path4240"
         d="m 673.53101,861.09777 0,88.5826"
         style="fill:none;stroke:#000000"
         inkscape:connector-curvature="0" />
      <path
         id="path4242"
         d="m 627.82231,949.68037 0,-88.5826"
         style="fill:none;stroke:#000000"
         inkscape:connector-curvature="0" />
      <path
         id="path4244"
         d="m 694.79721,949.46637 0,17.7166"
         style="fill:none;stroke:#000000"
         inkscape:connector-curvature="0" />
      <path
         id="path4246"
         d="m 694.79721,967.18297 -88.5827,0"
         style="fill:none;stroke:#000000"
         inkscape:connector-curvature="0" />
      <path
         id="path4248"
         d="m 606.21451,967.18297 0,-17.7166"
         style="fill:none;stroke:#000000"
         inkscape:connector-curvature="0" />
      <path
         id="path4250"
         d="m 606.21451,949.46637 21.6078,0"
         style="fill:none;stroke:#000000"
         inkscape:connector-curvature="0" />
      <path
         id="path4252"
         d="m 673.53101,949.46637 21.2662,0"
         style="fill:none;stroke:#000000"
         inkscape:connector-curvature="0" />
      <path
         id="path4254"
         d="m 655.00551,872.16547 a 5.315,5.315 0 1 0 -10.63,0 5.315,5.315 0 0 0 10.63,0 z"
         style="fill:none;stroke:#000000"
         inkscape:connector-curvature="0" />
      <path
         id="path4256"
         d="m 525.08421,872.16547 a 5.314961,5.314961 0 1 0 -10.6299,0 5.314961,5.314961 0 1 0 10.6299,0 z"
         style="fill:none;stroke:#000000"
         inkscape:connector-curvature="0" />
      <path
         id="path4258"
         d="m 564.87591,967.18297 -88.5827,0"
         style="fill:none;stroke:#000000"
         inkscape:connector-curvature="0" />
      <path
         id="path4260"
         d="m 564.87591,949.46637 0,17.7166"
         style="fill:none;stroke:#000000"
         inkscape:connector-curvature="0" />
      <path
         id="path4262"
         d="m 476.29321,949.46637 21.6078,0"
         style="fill:none;stroke:#000000"
         inkscape:connector-curvature="0" />
      <path
         id="path4264"
         d="m 497.90101,949.68037 0,-88.5826"
         style="fill:none;stroke:#000000"
         inkscape:connector-curvature="0" />
      <path
         id="path4266"
         d="m 476.29321,967.18297 0,-17.7166"
         style="fill:none;stroke:#000000"
         inkscape:connector-curvature="0" />
      <path
         id="path4268"
         d="m 543.60971,861.09777 0,88.5826"
         style="fill:none;stroke:#000000"
         inkscape:connector-curvature="0" />
      <path
         id="path4270"
         d="m 497.90101,861.09777 45.7087,0"
         style="fill:none;stroke:#000000"
         inkscape:connector-curvature="0" />
      <path
         id="path4272"
         d="m 543.60971,949.46637 21.2662,0"
         style="fill:none;stroke:#000000"
         inkscape:connector-curvature="0" />
      <path
         id="path4274"
         d="m 395.16291,872.16547 a 5.314961,5.314961 0 1 0 -10.6299,0 5.314961,5.314961 0 1 0 10.6299,0 z"
         style="fill:none;stroke:#000000"
         inkscape:connector-curvature="0" />
      <path
         id="path4276"
         d="m 434.95461,967.18297 -88.5826,0"
         style="fill:none;stroke:#000000"
         inkscape:connector-curvature="0" />
      <path
         id="path4278"
         d="m 434.95461,949.46637 0,17.7166"
         style="fill:none;stroke:#000000"
         inkscape:connector-curvature="0" />
      <path
         id="path4280"
         d="m 346.37201,949.46637 21.6077,0"
         style="fill:none;stroke:#000000"
         inkscape:connector-curvature="0" />
      <path
         id="path4282"
         d="m 367.97971,949.68037 0,-88.5826"
         style="fill:none;stroke:#000000"
         inkscape:connector-curvature="0" />
      <path
         id="path4284"
         d="m 346.37201,967.18297 0,-17.7166"
         style="fill:none;stroke:#000000"
         inkscape:connector-curvature="0" />
      <path
         id="path4286"
         d="m 413.68841,861.09777 0,88.5826"
         style="fill:none;stroke:#000000"
         inkscape:connector-curvature="0" />
      <path
         id="path4288"
         d="m 367.97971,861.09777 45.7087,0"
         style="fill:none;stroke:#000000"
         inkscape:connector-curvature="0" />
      <path
         id="path4290"
         d="m 413.68841,949.46637 21.2662,0"
         style="fill:none;stroke:#000000"
         inkscape:connector-curvature="0" />
      <path
         id="path4292"
         d="m 265.24171,872.16547 a 5.315,5.315 0 1 0 -10.63,0 5.315,5.315 0 0 0 10.63,0 z"
         style="fill:none;stroke:#000000"
         inkscape:connector-curvature="0" />
      <path
         id="path4294"
         d="m 305.03341,967.18297 -88.5827,0"
         style="fill:none;stroke:#000000"
         inkscape:connector-curvature="0" />
      <path
         id="path4296"
         d="m 305.03341,949.46637 0,17.7166"
         style="fill:none;stroke:#000000"
         inkscape:connector-curvature="0" />
      <path
         id="path4298"
         d="m 216.45071,949.46637 21.6078,0"
         style="fill:none;stroke:#000000"
         inkscape:connector-curvature="0" />
      <path
         id="path4300"
         d="m 238.05851,949.68037 0,-88.5826"
         style="fill:none;stroke:#000000"
         inkscape:connector-curvature="0" />
      <path
         id="path4302"
         d="m 216.45071,967.18297 0,-17.7166"
         style="fill:none;stroke:#000000"
         inkscape:connector-curvature="0" />
      <path
         id="path4304"
         d="m 283.76721,861.09777 0,88.5826"
         style="fill:none;stroke:#000000"
         inkscape:connector-curvature="0" />
      <path
         id="path4306"
         d="m 238.05851,861.09777 45.7087,0"
         style="fill:none;stroke:#000000"
         inkscape:connector-curvature="0" />
      <path
         id="path4308"
         d="m 283.76721,949.46637 21.2662,0"
         style="fill:none;stroke:#000000"
         inkscape:connector-curvature="0" />
    </g>
  </g>
</svg>
