  0
SECTION
  2
HEADER
  9
$ACADVER
  1
AC1014
  9
$HANDSEED
  5
FFFF
  9
$MEASUREMENT
 70
     1
  0
ENDSEC
  0
SECTION
  2
TABLES
  0
TABLE
  2
VPORT
  5
8
330
0
100
AcDbSymbolTable
 70
     4
  0
VPORT
  5
2E
330
8
100
AcDbSymbolTableRecord
100
AcDbViewportTableRecord
  2
*ACTIVE
 70
     0
 10
0.0
 20
0.0
 11
1.0
 21
1.0
 12
210.0
 22
148.5
 13
0.0
 23
0.0
 14
10.0
 24
10.0
 15
10.0
 25
10.0
 16
0.0
 26
0.0
 36
1.0
 17
0.0
 27
0.0
 37
0.0
 40
341.0
 41
1.24
 42
50.0
 43
0.0
 44
0.0
 50
0.0
 51
0.0
 71
     0
 72
   100
 73
     1
 74
     3
 75
     0
 76
     0
 77
     0
 78
     0
  0
ENDTAB
  0
TABLE
  2
LTYPE
  5
5
330
0
100
AcDbSymbolTable
 70
     1
  0
LTYPE
  5
14
330
5
100
AcDbSymbolTableRecord
100
AcDbLinetypeTableRecord
  2
BYBLOCK
 70
     0
  3

 72
    65
 73
     0
 40
0.0
  0
LTYPE
  5
15
330
5
100
AcDbSymbolTableRecord
100
AcDbLinetypeTableRecord
  2
BYLAYER
 70
     0
  3

 72
    65
 73
     0
 40
0.0
  0
LTYPE
  5
16
330
5
100
AcDbSymbolTableRecord
100
AcDbLinetypeTableRecord
  2
CONTINUOUS
 70
     0
  3
Solid line
 72
    65
 73
     0
 40
0.0
  0
ENDTAB
  0
TABLE
  2
LAYER
  5
2
100
AcDbSymbolTable
 70
2
  0
LAYER
  5
50
100
AcDbSymbolTableRecord
100
AcDbLayerTableRecord
  2
0
 70
0
  6
CONTINUOUS
  0
LAYER
  5
51
100
AcDbSymbolTableRecord
100
AcDbLayerTableRecord
  2
Layer_1
 70
0
  6
CONTINUOUS
  0
ENDTAB
  0
TABLE
  2
STYLE
  5
3
330
0
100
AcDbSymbolTable
 70
     1
  0
STYLE
  5
11
330
3
100
AcDbSymbolTableRecord
100
AcDbTextStyleTableRecord
  2
STANDARD
 70
     0
 40
0.0
 41
1.0
 50
0.0
 71
     0
 42
2.5
  3
txt
  4

  0
ENDTAB
  0
TABLE
  2
VIEW
  5
6
330
0
100
AcDbSymbolTable
 70
     0
  0
ENDTAB
  0
TABLE
  2
UCS
  5
7
330
0
100
AcDbSymbolTable
 70
     0
  0
ENDTAB
  0
TABLE
  2
APPID
  5
9
330
0
100
AcDbSymbolTable
 70
     2
  0
APPID
  5
12
330
9
100
AcDbSymbolTableRecord
100
AcDbRegAppTableRecord
  2
ACAD
 70
     0
  0
ENDTAB
  0
TABLE
  2
DIMSTYLE
  5
A
330
0
100
AcDbSymbolTable
 70
     1
  0
DIMSTYLE
105
27
330
A
100
AcDbSymbolTableRecord
100
AcDbDimStyleTableRecord
  2
ISO-25
 70
     0
  3

  4

  5

  6

  7

 40
1.0
 41
2.5
 42
0.625
 43
3.75
 44
1.25
 45
0.0
 46
0.0
 47
0.0
 48
0.0
140
2.5
141
2.5
142
0.0
143
0.03937007874016
144
1.0
145
0.0
146
1.0
147
0.625
 71
     0
 72
     0
 73
     0
 74
     0
 75
     0
 76
     0
 77
     1
 78
     8
170
     0
171
     3
172
     1
173
     0
174
     0
175
     0
176
     0
177
     0
178
     0
270
     2
271
     2
272
     2
273
     2
274
     3
340
11
275
     0
280
     0
281
     0
282
     0
283
     0
284
     8
285
     0
286
     0
287
     3
288
     0
  0
ENDTAB
  0
TABLE
  2
BLOCK_RECORD
  5
1
330
0
100
AcDbSymbolTable
 70
     1
  0
BLOCK_RECORD
  5
1F
330
1
100
AcDbSymbolTableRecord
100
AcDbBlockTableRecord
  2
*MODEL_SPACE
  0
BLOCK_RECORD
  5
1B
330
1
100
AcDbSymbolTableRecord
100
AcDbBlockTableRecord
  2
*PAPER_SPACE
  0
ENDTAB
  0
ENDSEC
  0
SECTION
  2
BLOCKS
  0
BLOCK
  5
20
330
1F
100
AcDbEntity
  8
0
100
AcDbBlockBegin
  2
*MODEL_SPACE
 70
     0
 10
0.0
 20
0.0
 30
0.0
  3
*MODEL_SPACE
  1

  0
ENDBLK
  5
21
330
1F
100
AcDbEntity
  8
0
100
AcDbBlockEnd
  0
BLOCK
  5
1C
330
1B
100
AcDbEntity
 67
     1
  8
0
100
AcDbBlockBegin
  2
*PAPER_SPACE
  1

  0
ENDBLK
  5
1D
330
1B
100
AcDbEntity
 67
     1
  8
0
100
AcDbBlockEnd
  0
ENDSEC
  0
SECTION
  2
ENTITIES
  0
SPLINE
  5
100
100
AcDbEntity
  8
Layer_1
 62
7
100
AcDbSpline
 70
8
 71
3
 72
8
 73
4
 74
0
 40
0
 40
0
 40
0
 40
0
 40
1
 40
1
 40
1
 40
1
 10
125.031622
 20
49.740255
 30
0.0
 10
125.032714
 20
50.276880
 30
0.0
 10
124.747055
 20
50.773209
 30
0.0
 10
124.282506
 20
51.041837
 30
0.0
  0
SPLINE
  5
101
100
AcDbEntity
  8
Layer_1
 62
7
100
AcDbSpline
 70
8
 71
3
 72
8
 73
4
 74
0
 40
0
 40
0
 40
0
 40
0
 40
1
 40
1
 40
1
 40
1
 10
124.282506
 20
51.041837
 30
0.0
 10
123.817957
 20
51.310464
 30
0.0
 10
123.245293
 20
51.310464
 30
0.0
 10
122.780744
 20
51.041837
 30
0.0
  0
SPLINE
  5
102
100
AcDbEntity
  8
Layer_1
 62
7
100
AcDbSpline
 70
8
 71
3
 72
8
 73
4
 74
0
 40
0
 40
0
 40
0
 40
0
 40
1
 40
1
 40
1
 40
1
 10
122.780744
 20
51.041837
 30
0.0
 10
122.316195
 20
50.773209
 30
0.0
 10
122.030536
 20
50.276880
 30
0.0
 10
122.031628
 20
49.740255
 30
0.0
  0
SPLINE
  5
103
100
AcDbEntity
  8
Layer_1
 62
7
100
AcDbSpline
 70
8
 71
3
 72
8
 73
4
 74
0
 40
0
 40
0
 40
0
 40
0
 40
1
 40
1
 40
1
 40
1
 10
122.031628
 20
49.740255
 30
0.0
 10
122.030536
 20
49.203631
 30
0.0
 10
122.316195
 20
48.707302
 30
0.0
 10
122.780744
 20
48.438674
 30
0.0
  0
SPLINE
  5
104
100
AcDbEntity
  8
Layer_1
 62
7
100
AcDbSpline
 70
8
 71
3
 72
8
 73
4
 74
0
 40
0
 40
0
 40
0
 40
0
 40
1
 40
1
 40
1
 40
1
 10
122.780744
 20
48.438674
 30
0.0
 10
123.245293
 20
48.170047
 30
0.0
 10
123.817957
 20
48.170047
 30
0.0
 10
124.282506
 20
48.438674
 30
0.0
  0
SPLINE
  5
105
100
AcDbEntity
  8
Layer_1
 62
7
100
AcDbSpline
 70
8
 71
3
 72
8
 73
4
 74
0
 40
0
 40
0
 40
0
 40
0
 40
1
 40
1
 40
1
 40
1
 10
124.282506
 20
48.438674
 30
0.0
 10
124.747055
 20
48.707302
 30
0.0
 10
125.032714
 20
49.203631
 30
0.0
 10
125.031622
 20
49.740255
 30
0.0
  0
LINE
  5
106
100
AcDbEntity
  8
Layer_1
 62
7
100
AcDbLine
 10
125.031622
 20
49.740255
 30
0.0
 11
125.031622
 21
49.740255
 31
0.0
  0
SPLINE
  5
107
100
AcDbEntity
  8
Layer_1
 62
7
100
AcDbSpline
 70
8
 71
3
 72
8
 73
4
 74
0
 40
0
 40
0
 40
0
 40
0
 40
1
 40
1
 40
1
 40
1
 10
19.914955
 20
160.558632
 30
0.0
 10
19.915420
 20
161.094841
 30
0.0
 10
19.629624
 20
161.590517
 30
0.0
 10
19.165331
 20
161.858756
 30
0.0
  0
SPLINE
  5
108
100
AcDbEntity
  8
Layer_1
 62
7
100
AcDbSpline
 70
8
 71
3
 72
8
 73
4
 74
0
 40
0
 40
0
 40
0
 40
0
 40
1
 40
1
 40
1
 40
1
 10
19.165331
 20
161.858756
 30
0.0
 10
18.701038
 20
162.126995
 30
0.0
 10
18.128871
 20
162.126995
 30
0.0
 10
17.664578
 20
161.858756
 30
0.0
  0
SPLINE
  5
109
100
AcDbEntity
  8
Layer_1
 62
7
100
AcDbSpline
 70
8
 71
3
 72
8
 73
4
 74
0
 40
0
 40
0
 40
0
 40
0
 40
1
 40
1
 40
1
 40
1
 10
17.664578
 20
161.858756
 30
0.0
 10
17.200285
 20
161.590517
 30
0.0
 10
16.914489
 20
161.094841
 30
0.0
 10
16.914954
 20
160.558632
 30
0.0
  0
SPLINE
  5
10a
100
AcDbEntity
  8
Layer_1
 62
7
100
AcDbSpline
 70
8
 71
3
 72
8
 73
4
 74
0
 40
0
 40
0
 40
0
 40
0
 40
1
 40
1
 40
1
 40
1
 10
16.914954
 20
160.558632
 30
0.0
 10
16.915672
 20
159.730713
 30
0.0
 10
17.587035
 20
159.059932
 30
0.0
 10
18.414954
 20
159.059932
 30
0.0
  0
SPLINE
  5
10b
100
AcDbEntity
  8
Layer_1
 62
7
100
AcDbSpline
 70
8
 71
3
 72
8
 73
4
 74
0
 40
0
 40
0
 40
0
 40
0
 40
1
 40
1
 40
1
 40
1
 10
18.414954
 20
159.059932
 30
0.0
 10
19.242874
 20
159.059932
 30
0.0
 10
19.914237
 20
159.730713
 30
0.0
 10
19.914955
 20
160.558632
 30
0.0
  0
LINE
  5
10c
100
AcDbEntity
  8
Layer_1
 62
7
100
AcDbLine
 10
19.914955
 20
160.558632
 30
0.0
 11
19.914955
 21
160.558632
 31
0.0
  0
SPLINE
  5
10d
100
AcDbEntity
  8
Layer_1
 62
7
100
AcDbSpline
 70
8
 71
3
 72
8
 73
4
 74
0
 40
0
 40
0
 40
0
 40
0
 40
1
 40
1
 40
1
 40
1
 10
168.444822
 20
196.183143
 30
0.0
 10
168.445914
 20
196.719767
 30
0.0
 10
168.160255
 20
197.216096
 30
0.0
 10
167.695706
 20
197.484724
 30
0.0
  0
SPLINE
  5
10e
100
AcDbEntity
  8
Layer_1
 62
7
100
AcDbSpline
 70
8
 71
3
 72
8
 73
4
 74
0
 40
0
 40
0
 40
0
 40
0
 40
1
 40
1
 40
1
 40
1
 10
167.695706
 20
197.484724
 30
0.0
 10
167.231157
 20
197.753352
 30
0.0
 10
166.658494
 20
197.753352
 30
0.0
 10
166.193944
 20
197.484724
 30
0.0
  0
SPLINE
  5
10f
100
AcDbEntity
  8
Layer_1
 62
7
100
AcDbSpline
 70
8
 71
3
 72
8
 73
4
 74
0
 40
0
 40
0
 40
0
 40
0
 40
1
 40
1
 40
1
 40
1
 10
166.193944
 20
197.484724
 30
0.0
 10
165.729395
 20
197.216096
 30
0.0
 10
165.443737
 20
196.719767
 30
0.0
 10
165.444828
 20
196.183143
 30
0.0
  0
SPLINE
  5
110
100
AcDbEntity
  8
Layer_1
 62
7
100
AcDbSpline
 70
8
 71
3
 72
8
 73
4
 74
0
 40
0
 40
0
 40
0
 40
0
 40
1
 40
1
 40
1
 40
1
 10
165.444828
 20
196.183143
 30
0.0
 10
165.443737
 20
195.646518
 30
0.0
 10
165.729395
 20
195.150189
 30
0.0
 10
166.193944
 20
194.881562
 30
0.0
  0
SPLINE
  5
111
100
AcDbEntity
  8
Layer_1
 62
7
100
AcDbSpline
 70
8
 71
3
 72
8
 73
4
 74
0
 40
0
 40
0
 40
0
 40
0
 40
1
 40
1
 40
1
 40
1
 10
166.193944
 20
194.881562
 30
0.0
 10
166.658494
 20
194.612934
 30
0.0
 10
167.231157
 20
194.612934
 30
0.0
 10
167.695706
 20
194.881562
 30
0.0
  0
SPLINE
  5
112
100
AcDbEntity
  8
Layer_1
 62
7
100
AcDbSpline
 70
8
 71
3
 72
8
 73
4
 74
0
 40
0
 40
0
 40
0
 40
0
 40
1
 40
1
 40
1
 40
1
 10
167.695706
 20
194.881562
 30
0.0
 10
168.160255
 20
195.150189
 30
0.0
 10
168.445914
 20
195.646518
 30
0.0
 10
168.444822
 20
196.183143
 30
0.0
  0
LINE
  5
113
100
AcDbEntity
  8
Layer_1
 62
7
100
AcDbLine
 10
168.444822
 20
196.183143
 30
0.0
 11
168.444822
 21
196.183143
 31
0.0
  0
SPLINE
  5
114
100
AcDbEntity
  8
Layer_1
 62
7
100
AcDbSpline
 70
8
 71
3
 72
8
 73
4
 74
0
 40
0
 40
0
 40
0
 40
0
 40
1
 40
1
 40
1
 40
1
 10
123.355561
 20
213.983463
 30
0.0
 10
123.357812
 20
214.610171
 30
0.0
 10
123.024759
 20
215.190239
 30
0.0
 10
122.482386
 20
215.504245
 30
0.0
  0
SPLINE
  5
115
100
AcDbEntity
  8
Layer_1
 62
7
100
AcDbSpline
 70
8
 71
3
 72
8
 73
4
 74
0
 40
0
 40
0
 40
0
 40
0
 40
1
 40
1
 40
1
 40
1
 10
122.482386
 20
215.504245
 30
0.0
 10
121.940012
 20
215.818251
 30
0.0
 10
121.271130
 20
215.818251
 30
0.0
 10
120.728757
 20
215.504245
 30
0.0
  0
SPLINE
  5
116
100
AcDbEntity
  8
Layer_1
 62
7
100
AcDbSpline
 70
8
 71
3
 72
8
 73
4
 74
0
 40
0
 40
0
 40
0
 40
0
 40
1
 40
1
 40
1
 40
1
 10
120.728757
 20
215.504245
 30
0.0
 10
120.186384
 20
215.190239
 30
0.0
 10
119.853331
 20
214.610171
 30
0.0
 10
119.855582
 20
213.983463
 30
0.0
  0
SPLINE
  5
117
100
AcDbEntity
  8
Layer_1
 62
7
100
AcDbSpline
 70
8
 71
3
 72
8
 73
4
 74
0
 40
0
 40
0
 40
0
 40
0
 40
1
 40
1
 40
1
 40
1
 10
119.855582
 20
213.983463
 30
0.0
 10
119.853331
 20
213.356754
 30
0.0
 10
120.186384
 20
212.776686
 30
0.0
 10
120.728757
 20
212.462681
 30
0.0
  0
SPLINE
  5
118
100
AcDbEntity
  8
Layer_1
 62
7
100
AcDbSpline
 70
8
 71
3
 72
8
 73
4
 74
0
 40
0
 40
0
 40
0
 40
0
 40
1
 40
1
 40
1
 40
1
 10
120.728757
 20
212.462681
 30
0.0
 10
121.271130
 20
212.148675
 30
0.0
 10
121.940012
 20
212.148675
 30
0.0
 10
122.482386
 20
212.462681
 30
0.0
  0
SPLINE
  5
119
100
AcDbEntity
  8
Layer_1
 62
7
100
AcDbSpline
 70
8
 71
3
 72
8
 73
4
 74
0
 40
0
 40
0
 40
0
 40
0
 40
1
 40
1
 40
1
 40
1
 10
122.482386
 20
212.462681
 30
0.0
 10
123.024759
 20
212.776686
 30
0.0
 10
123.357812
 20
213.356754
 30
0.0
 10
123.355561
 20
213.983463
 30
0.0
  0
LINE
  5
11a
100
AcDbEntity
  8
Layer_1
 62
7
100
AcDbLine
 10
123.355561
 20
213.983463
 30
0.0
 11
123.355561
 21
213.983463
 31
0.0
  0
SPLINE
  5
11b
100
AcDbEntity
  8
Layer_1
 62
7
100
AcDbSpline
 70
8
 71
3
 72
8
 73
4
 74
0
 40
0
 40
0
 40
0
 40
0
 40
1
 40
1
 40
1
 40
1
 10
83.355584
 20
213.983463
 30
0.0
 10
83.355584
 20
214.608679
 30
0.0
 10
83.022036
 20
215.186402
 30
0.0
 10
82.480583
 20
215.499010
 30
0.0
  0
SPLINE
  5
11c
100
AcDbEntity
  8
Layer_1
 62
7
100
AcDbSpline
 70
8
 71
3
 72
8
 73
4
 74
0
 40
0
 40
0
 40
0
 40
0
 40
1
 40
1
 40
1
 40
1
 10
82.480583
 20
215.499010
 30
0.0
 10
81.939130
 20
215.811618
 30
0.0
 10
81.272032
 20
215.811618
 30
0.0
 10
80.730579
 20
215.499010
 30
0.0
  0
SPLINE
  5
11d
100
AcDbEntity
  8
Layer_1
 62
7
100
AcDbSpline
 70
8
 71
3
 72
8
 73
4
 74
0
 40
0
 40
0
 40
0
 40
0
 40
1
 40
1
 40
1
 40
1
 10
80.730579
 20
215.499010
 30
0.0
 10
80.189126
 20
215.186402
 30
0.0
 10
79.855577
 20
214.608679
 30
0.0
 10
79.855577
 20
213.983463
 30
0.0
  0
SPLINE
  5
11e
100
AcDbEntity
  8
Layer_1
 62
7
100
AcDbSpline
 70
8
 71
3
 72
8
 73
4
 74
0
 40
0
 40
0
 40
0
 40
0
 40
1
 40
1
 40
1
 40
1
 10
79.855577
 20
213.983463
 30
0.0
 10
79.855577
 20
213.358247
 30
0.0
 10
80.189126
 20
212.780523
 30
0.0
 10
80.730579
 20
212.467915
 30
0.0
  0
SPLINE
  5
11f
100
AcDbEntity
  8
Layer_1
 62
7
100
AcDbSpline
 70
8
 71
3
 72
8
 73
4
 74
0
 40
0
 40
0
 40
0
 40
0
 40
1
 40
1
 40
1
 40
1
 10
80.730579
 20
212.467915
 30
0.0
 10
81.272032
 20
212.155307
 30
0.0
 10
81.939130
 20
212.155307
 30
0.0
 10
82.480583
 20
212.467915
 30
0.0
  0
SPLINE
  5
120
100
AcDbEntity
  8
Layer_1
 62
7
100
AcDbSpline
 70
8
 71
3
 72
8
 73
4
 74
0
 40
0
 40
0
 40
0
 40
0
 40
1
 40
1
 40
1
 40
1
 10
82.480583
 20
212.467915
 30
0.0
 10
83.022036
 20
212.780523
 30
0.0
 10
83.355584
 20
213.358247
 30
0.0
 10
83.355584
 20
213.983463
 30
0.0
  0
LINE
  5
121
100
AcDbEntity
  8
Layer_1
 62
7
100
AcDbLine
 10
83.355584
 20
213.983463
 30
0.0
 11
83.355584
 21
213.983463
 31
0.0
  0
SPLINE
  5
122
100
AcDbEntity
  8
Layer_1
 62
7
100
AcDbSpline
 70
8
 71
3
 72
8
 73
4
 74
0
 40
0
 40
0
 40
0
 40
0
 40
1
 40
1
 40
1
 40
1
 10
123.338289
 20
156.213855
 30
0.0
 10
123.338289
 20
156.839071
 30
0.0
 10
123.004740
 20
157.416795
 30
0.0
 10
122.463287
 20
157.729403
 30
0.0
  0
SPLINE
  5
123
100
AcDbEntity
  8
Layer_1
 62
7
100
AcDbSpline
 70
8
 71
3
 72
8
 73
4
 74
0
 40
0
 40
0
 40
0
 40
0
 40
1
 40
1
 40
1
 40
1
 10
122.463287
 20
157.729403
 30
0.0
 10
121.921834
 20
158.042011
 30
0.0
 10
121.254736
 20
158.042011
 30
0.0
 10
120.713283
 20
157.729403
 30
0.0
  0
SPLINE
  5
124
100
AcDbEntity
  8
Layer_1
 62
7
100
AcDbSpline
 70
8
 71
3
 72
8
 73
4
 74
0
 40
0
 40
0
 40
0
 40
0
 40
1
 40
1
 40
1
 40
1
 10
120.713283
 20
157.729403
 30
0.0
 10
120.171830
 20
157.416795
 30
0.0
 10
119.838282
 20
156.839071
 30
0.0
 10
119.838282
 20
156.213855
 30
0.0
  0
SPLINE
  5
125
100
AcDbEntity
  8
Layer_1
 62
7
100
AcDbSpline
 70
8
 71
3
 72
8
 73
4
 74
0
 40
0
 40
0
 40
0
 40
0
 40
1
 40
1
 40
1
 40
1
 10
119.838282
 20
156.213855
 30
0.0
 10
119.838282
 20
155.588639
 30
0.0
 10
120.171830
 20
155.010916
 30
0.0
 10
120.713283
 20
154.698308
 30
0.0
  0
SPLINE
  5
126
100
AcDbEntity
  8
Layer_1
 62
7
100
AcDbSpline
 70
8
 71
3
 72
8
 73
4
 74
0
 40
0
 40
0
 40
0
 40
0
 40
1
 40
1
 40
1
 40
1
 10
120.713283
 20
154.698308
 30
0.0
 10
121.254736
 20
154.385700
 30
0.0
 10
121.921834
 20
154.385700
 30
0.0
 10
122.463287
 20
154.698308
 30
0.0
  0
SPLINE
  5
127
100
AcDbEntity
  8
Layer_1
 62
7
100
AcDbSpline
 70
8
 71
3
 72
8
 73
4
 74
0
 40
0
 40
0
 40
0
 40
0
 40
1
 40
1
 40
1
 40
1
 10
122.463287
 20
154.698308
 30
0.0
 10
123.004740
 20
155.010916
 30
0.0
 10
123.338289
 20
155.588639
 30
0.0
 10
123.338289
 20
156.213855
 30
0.0
  0
LINE
  5
128
100
AcDbEntity
  8
Layer_1
 62
7
100
AcDbLine
 10
123.338289
 20
156.213855
 30
0.0
 11
123.338289
 21
156.213855
 31
0.0
  0
SPLINE
  5
129
100
AcDbEntity
  8
Layer_1
 62
7
100
AcDbSpline
 70
8
 71
3
 72
8
 73
4
 74
0
 40
0
 40
0
 40
0
 40
0
 40
1
 40
1
 40
1
 40
1
 10
85.838293
 20
156.213855
 30
0.0
 10
85.838293
 20
156.839071
 30
0.0
 10
85.504744
 20
157.416795
 30
0.0
 10
84.963291
 20
157.729403
 30
0.0
  0
SPLINE
  5
12a
100
AcDbEntity
  8
Layer_1
 62
7
100
AcDbSpline
 70
8
 71
3
 72
8
 73
4
 74
0
 40
0
 40
0
 40
0
 40
0
 40
1
 40
1
 40
1
 40
1
 10
84.963291
 20
157.729403
 30
0.0
 10
84.421838
 20
158.042011
 30
0.0
 10
83.754741
 20
158.042011
 30
0.0
 10
83.213288
 20
157.729403
 30
0.0
  0
SPLINE
  5
12b
100
AcDbEntity
  8
Layer_1
 62
7
100
AcDbSpline
 70
8
 71
3
 72
8
 73
4
 74
0
 40
0
 40
0
 40
0
 40
0
 40
1
 40
1
 40
1
 40
1
 10
83.213288
 20
157.729403
 30
0.0
 10
82.671835
 20
157.416795
 30
0.0
 10
82.338286
 20
156.839071
 30
0.0
 10
82.338286
 20
156.213855
 30
0.0
  0
SPLINE
  5
12c
100
AcDbEntity
  8
Layer_1
 62
7
100
AcDbSpline
 70
8
 71
3
 72
8
 73
4
 74
0
 40
0
 40
0
 40
0
 40
0
 40
1
 40
1
 40
1
 40
1
 10
82.338286
 20
156.213855
 30
0.0
 10
82.338286
 20
155.588639
 30
0.0
 10
82.671835
 20
155.010916
 30
0.0
 10
83.213288
 20
154.698308
 30
0.0
  0
SPLINE
  5
12d
100
AcDbEntity
  8
Layer_1
 62
7
100
AcDbSpline
 70
8
 71
3
 72
8
 73
4
 74
0
 40
0
 40
0
 40
0
 40
0
 40
1
 40
1
 40
1
 40
1
 10
83.213288
 20
154.698308
 30
0.0
 10
83.754741
 20
154.385700
 30
0.0
 10
84.421838
 20
154.385700
 30
0.0
 10
84.963291
 20
154.698308
 30
0.0
  0
SPLINE
  5
12e
100
AcDbEntity
  8
Layer_1
 62
7
100
AcDbSpline
 70
8
 71
3
 72
8
 73
4
 74
0
 40
0
 40
0
 40
0
 40
0
 40
1
 40
1
 40
1
 40
1
 10
84.963291
 20
154.698308
 30
0.0
 10
85.504744
 20
155.010916
 30
0.0
 10
85.838293
 20
155.588639
 30
0.0
 10
85.838293
 20
156.213855
 30
0.0
  0
LINE
  5
12f
100
AcDbEntity
  8
Layer_1
 62
7
100
AcDbLine
 10
85.838293
 20
156.213855
 30
0.0
 11
85.838293
 21
156.213855
 31
0.0
  0
SPLINE
  5
130
100
AcDbEntity
  8
Layer_1
 62
7
100
AcDbSpline
 70
8
 71
3
 72
8
 73
4
 74
0
 40
0
 40
0
 40
0
 40
0
 40
1
 40
1
 40
1
 40
1
 10
123.338289
 20
118.713843
 30
0.0
 10
123.338289
 20
119.339059
 30
0.0
 10
123.004740
 20
119.916782
 30
0.0
 10
122.463287
 20
120.229390
 30
0.0
  0
SPLINE
  5
131
100
AcDbEntity
  8
Layer_1
 62
7
100
AcDbSpline
 70
8
 71
3
 72
8
 73
4
 74
0
 40
0
 40
0
 40
0
 40
0
 40
1
 40
1
 40
1
 40
1
 10
122.463287
 20
120.229390
 30
0.0
 10
121.921834
 20
120.541998
 30
0.0
 10
121.254736
 20
120.541998
 30
0.0
 10
120.713283
 20
120.229390
 30
0.0
  0
SPLINE
  5
132
100
AcDbEntity
  8
Layer_1
 62
7
100
AcDbSpline
 70
8
 71
3
 72
8
 73
4
 74
0
 40
0
 40
0
 40
0
 40
0
 40
1
 40
1
 40
1
 40
1
 10
120.713283
 20
120.229390
 30
0.0
 10
120.171830
 20
119.916782
 30
0.0
 10
119.838282
 20
119.339059
 30
0.0
 10
119.838282
 20
118.713843
 30
0.0
  0
SPLINE
  5
133
100
AcDbEntity
  8
Layer_1
 62
7
100
AcDbSpline
 70
8
 71
3
 72
8
 73
4
 74
0
 40
0
 40
0
 40
0
 40
0
 40
1
 40
1
 40
1
 40
1
 10
119.838282
 20
118.713843
 30
0.0
 10
119.838282
 20
118.088627
 30
0.0
 10
120.171830
 20
117.510903
 30
0.0
 10
120.713283
 20
117.198295
 30
0.0
  0
SPLINE
  5
134
100
AcDbEntity
  8
Layer_1
 62
7
100
AcDbSpline
 70
8
 71
3
 72
8
 73
4
 74
0
 40
0
 40
0
 40
0
 40
0
 40
1
 40
1
 40
1
 40
1
 10
120.713283
 20
117.198295
 30
0.0
 10
121.254736
 20
116.885687
 30
0.0
 10
121.921834
 20
116.885687
 30
0.0
 10
122.463287
 20
117.198295
 30
0.0
  0
SPLINE
  5
135
100
AcDbEntity
  8
Layer_1
 62
7
100
AcDbSpline
 70
8
 71
3
 72
8
 73
4
 74
0
 40
0
 40
0
 40
0
 40
0
 40
1
 40
1
 40
1
 40
1
 10
122.463287
 20
117.198295
 30
0.0
 10
123.004740
 20
117.510903
 30
0.0
 10
123.338289
 20
118.088627
 30
0.0
 10
123.338289
 20
118.713843
 30
0.0
  0
LINE
  5
136
100
AcDbEntity
  8
Layer_1
 62
7
100
AcDbLine
 10
123.338289
 20
118.713843
 30
0.0
 11
123.338289
 21
118.713843
 31
0.0
  0
SPLINE
  5
137
100
AcDbEntity
  8
Layer_1
 62
7
100
AcDbSpline
 70
8
 71
3
 72
8
 73
4
 74
0
 40
0
 40
0
 40
0
 40
0
 40
1
 40
1
 40
1
 40
1
 10
85.838293
 20
118.713843
 30
0.0
 10
85.838293
 20
119.339059
 30
0.0
 10
85.504744
 20
119.916782
 30
0.0
 10
84.963291
 20
120.229390
 30
0.0
  0
SPLINE
  5
138
100
AcDbEntity
  8
Layer_1
 62
7
100
AcDbSpline
 70
8
 71
3
 72
8
 73
4
 74
0
 40
0
 40
0
 40
0
 40
0
 40
1
 40
1
 40
1
 40
1
 10
84.963291
 20
120.229390
 30
0.0
 10
84.421838
 20
120.541998
 30
0.0
 10
83.754741
 20
120.541998
 30
0.0
 10
83.213288
 20
120.229390
 30
0.0
  0
SPLINE
  5
139
100
AcDbEntity
  8
Layer_1
 62
7
100
AcDbSpline
 70
8
 71
3
 72
8
 73
4
 74
0
 40
0
 40
0
 40
0
 40
0
 40
1
 40
1
 40
1
 40
1
 10
83.213288
 20
120.229390
 30
0.0
 10
82.671835
 20
119.916782
 30
0.0
 10
82.338286
 20
119.339059
 30
0.0
 10
82.338286
 20
118.713843
 30
0.0
  0
SPLINE
  5
13a
100
AcDbEntity
  8
Layer_1
 62
7
100
AcDbSpline
 70
8
 71
3
 72
8
 73
4
 74
0
 40
0
 40
0
 40
0
 40
0
 40
1
 40
1
 40
1
 40
1
 10
82.338286
 20
118.713843
 30
0.0
 10
82.338286
 20
118.088627
 30
0.0
 10
82.671835
 20
117.510903
 30
0.0
 10
83.213288
 20
117.198295
 30
0.0
  0
SPLINE
  5
13b
100
AcDbEntity
  8
Layer_1
 62
7
100
AcDbSpline
 70
8
 71
3
 72
8
 73
4
 74
0
 40
0
 40
0
 40
0
 40
0
 40
1
 40
1
 40
1
 40
1
 10
83.213288
 20
117.198295
 30
0.0
 10
83.754741
 20
116.885687
 30
0.0
 10
84.421838
 20
116.885687
 30
0.0
 10
84.963291
 20
117.198295
 30
0.0
  0
SPLINE
  5
13c
100
AcDbEntity
  8
Layer_1
 62
7
100
AcDbSpline
 70
8
 71
3
 72
8
 73
4
 74
0
 40
0
 40
0
 40
0
 40
0
 40
1
 40
1
 40
1
 40
1
 10
84.963291
 20
117.198295
 30
0.0
 10
85.504744
 20
117.510903
 30
0.0
 10
85.838293
 20
118.088627
 30
0.0
 10
85.838293
 20
118.713843
 30
0.0
  0
LINE
  5
13d
100
AcDbEntity
  8
Layer_1
 62
7
100
AcDbLine
 10
85.838293
 20
118.713843
 30
0.0
 11
85.838293
 21
118.713843
 31
0.0
  0
LINE
  5
13e
100
AcDbEntity
  8
Layer_1
 62
7
100
AcDbLine
 10
71.890899
 20
180.164655
 30
0.0
 11
131.890920
 21
180.164655
 31
0.0
  0
LINE
  5
13f
100
AcDbEntity
  8
Layer_1
 62
7
100
AcDbLine
 10
131.890920
 20
180.164655
 30
0.0
 11
131.890920
 21
183.164655
 31
0.0
  0
LINE
  5
140
100
AcDbEntity
  8
Layer_1
 62
7
100
AcDbLine
 10
131.890920
 20
183.164655
 30
0.0
 11
71.890899
 21
183.164655
 31
0.0
  0
LINE
  5
141
100
AcDbEntity
  8
Layer_1
 62
7
100
AcDbLine
 10
71.890899
 20
183.164655
 30
0.0
 11
71.890899
 21
180.164655
 31
0.0
  0
LINE
  5
142
100
AcDbEntity
  8
Layer_1
 62
7
100
AcDbLine
 10
71.890899
 20
180.164655
 30
0.0
 11
71.890899
 21
180.164655
 31
0.0
  0
LINE
  5
143
100
AcDbEntity
  8
Layer_1
 62
7
100
AcDbLine
 10
74.036691
 20
87.823350
 30
0.0
 11
134.036684
 21
87.823350
 31
0.0
  0
LINE
  5
144
100
AcDbEntity
  8
Layer_1
 62
7
100
AcDbLine
 10
134.036684
 20
87.823350
 30
0.0
 11
134.036684
 21
90.823373
 31
0.0
  0
LINE
  5
145
100
AcDbEntity
  8
Layer_1
 62
7
100
AcDbLine
 10
134.036684
 20
90.823373
 30
0.0
 11
74.036691
 21
90.823373
 31
0.0
  0
LINE
  5
146
100
AcDbEntity
  8
Layer_1
 62
7
100
AcDbLine
 10
74.036691
 20
90.823373
 30
0.0
 11
74.036691
 21
87.823350
 31
0.0
  0
LINE
  5
147
100
AcDbEntity
  8
Layer_1
 62
7
100
AcDbLine
 10
74.036691
 20
87.823350
 30
0.0
 11
74.036691
 21
87.823350
 31
0.0
  0
LINE
  5
148
100
AcDbEntity
  8
Layer_1
 62
7
100
AcDbLine
 10
146.877315
 20
113.231718
 30
0.0
 11
146.877315
 21
100.231716
 31
0.0
  0
LINE
  5
149
100
AcDbEntity
  8
Layer_1
 62
7
100
AcDbLine
 10
146.877315
 20
100.231716
 30
0.0
 11
149.977301
 21
100.231716
 31
0.0
  0
LINE
  5
14a
100
AcDbEntity
  8
Layer_1
 62
7
100
AcDbLine
 10
149.977301
 20
100.231716
 30
0.0
 11
149.977301
 21
113.231718
 31
0.0
  0
LINE
  5
14b
100
AcDbEntity
  8
Layer_1
 62
7
100
AcDbLine
 10
149.977301
 20
113.231718
 30
0.0
 11
146.877315
 21
113.231718
 31
0.0
  0
LINE
  5
14c
100
AcDbEntity
  8
Layer_1
 62
7
100
AcDbLine
 10
146.877315
 20
113.231718
 30
0.0
 11
146.877315
 21
113.231718
 31
0.0
  0
LINE
  5
14d
100
AcDbEntity
  8
Layer_1
 62
7
100
AcDbLine
 10
59.077305
 20
100.231716
 30
0.0
 11
59.077305
 21
113.231718
 31
0.0
  0
LINE
  5
14e
100
AcDbEntity
  8
Layer_1
 62
7
100
AcDbLine
 10
59.077305
 20
113.231718
 30
0.0
 11
55.977319
 21
113.231718
 31
0.0
  0
LINE
  5
14f
100
AcDbEntity
  8
Layer_1
 62
7
100
AcDbLine
 10
55.977319
 20
113.231718
 30
0.0
 11
55.977319
 21
100.231716
 31
0.0
  0
LINE
  5
150
100
AcDbEntity
  8
Layer_1
 62
7
100
AcDbLine
 10
55.977319
 20
100.231716
 30
0.0
 11
59.077305
 21
100.231716
 31
0.0
  0
LINE
  5
151
100
AcDbEntity
  8
Layer_1
 62
7
100
AcDbLine
 10
59.077305
 20
100.231716
 30
0.0
 11
59.077305
 21
100.231716
 31
0.0
  0
LINE
  5
152
100
AcDbEntity
  8
Layer_1
 62
7
100
AcDbLine
 10
29.537522
 20
124.630914
 30
0.0
 11
3.555587
 21
124.630914
 31
0.0
  0
SPLINE
  5
153
100
AcDbEntity
  8
Layer_1
 62
7
100
AcDbSpline
 70
8
 71
3
 72
8
 73
4
 74
0
 40
0
 40
0
 40
0
 40
0
 40
1
 40
1
 40
1
 40
1
 10
3.555587
 20
124.630914
 30
0.0
 10
0.469083
 20
152.875525
 30
0.0
 10
9.543194
 20
181.099652
 30
0.0
 10
28.511438
 20
202.253596
 30
0.0
  0
SPLINE
  5
154
100
AcDbEntity
  8
Layer_1
 62
7
100
AcDbSpline
 70
8
 71
3
 72
8
 73
4
 74
0
 40
0
 40
0
 40
0
 40
0
 40
1
 40
1
 40
1
 40
1
 10
28.511438
 20
202.253596
 30
0.0
 10
47.479693
 20
223.407543
 30
0.0
 10
74.551041
 20
235.493910
 30
0.0
 10
102.963792
 20
235.493910
 30
0.0
  0
SPLINE
  5
155
100
AcDbEntity
  8
Layer_1
 62
7
100
AcDbSpline
 70
8
 71
3
 72
8
 73
4
 74
0
 40
0
 40
0
 40
0
 40
0
 40
1
 40
1
 40
1
 40
1
 10
102.963792
 20
235.493910
 30
0.0
 10
131.376542
 20
235.493910
 30
0.0
 10
158.447919
 20
223.407543
 30
0.0
 10
177.416187
 20
202.253596
 30
0.0
  0
SPLINE
  5
156
100
AcDbEntity
  8
Layer_1
 62
7
100
AcDbSpline
 70
8
 71
3
 72
8
 73
4
 74
0
 40
0
 40
0
 40
0
 40
0
 40
1
 40
1
 40
1
 40
1
 10
177.416187
 20
202.253596
 30
0.0
 10
196.384427
 20
181.099652
 30
0.0
 10
205.458521
 20
152.875525
 30
0.0
 10
202.372026
 20
124.630914
 30
0.0
  0
LINE
  5
157
100
AcDbEntity
  8
Layer_1
 62
7
100
AcDbLine
 10
202.372026
 20
124.630914
 30
0.0
 11
201.213391
 21
124.630914
 31
0.0
  0
LINE
  5
158
100
AcDbEntity
  8
Layer_1
 62
7
100
AcDbLine
 10
201.213391
 20
124.630914
 30
0.0
 11
176.213384
 21
124.630914
 31
0.0
  0
LINE
  5
159
100
AcDbEntity
  8
Layer_1
 62
7
100
AcDbLine
 10
176.213384
 20
124.630914
 30
0.0
 11
172.077305
 21
124.715363
 31
0.0
  0
LINE
  5
15a
100
AcDbEntity
  8
Layer_1
 62
7
100
AcDbLine
 10
172.077305
 20
124.715363
 30
0.0
 11
172.077305
 21
113.231718
 31
0.0
  0
LINE
  5
15b
100
AcDbEntity
  8
Layer_1
 62
7
100
AcDbLine
 10
172.077305
 20
113.231718
 30
0.0
 11
168.977319
 21
113.231718
 31
0.0
  0
LINE
  5
15c
100
AcDbEntity
  8
Layer_1
 62
7
100
AcDbLine
 10
168.977319
 20
113.231718
 30
0.0
 11
168.977319
 21
100.231716
 31
0.0
  0
LINE
  5
15d
100
AcDbEntity
  8
Layer_1
 62
7
100
AcDbLine
 10
168.977319
 20
100.231716
 30
0.0
 11
172.077305
 21
100.231716
 31
0.0
  0
LINE
  5
15e
100
AcDbEntity
  8
Layer_1
 62
7
100
AcDbLine
 10
172.077305
 20
100.231716
 30
0.0
 11
172.077305
 21
63.920455
 31
0.0
  0
LINE
  5
15f
100
AcDbEntity
  8
Layer_1
 62
7
100
AcDbLine
 10
172.077305
 20
63.920455
 30
0.0
 11
172.022356
 21
63.168657
 31
0.0
  0
SPLINE
  5
160
100
AcDbEntity
  8
Layer_1
 62
7
100
AcDbSpline
 70
8
 71
3
 72
8
 73
4
 74
0
 40
0
 40
0
 40
0
 40
0
 40
1
 40
1
 40
1
 40
1
 10
172.022356
 20
63.168657
 30
0.0
 10
153.443752
 20
45.427454
 30
0.0
 10
128.675111
 20
35.460514
 30
0.0
 10
102.833828
 20
35.494101
 30
0.0
  0
SPLINE
  5
161
100
AcDbEntity
  8
Layer_1
 62
7
100
AcDbSpline
 70
8
 71
3
 72
8
 73
4
 74
0
 40
0
 40
0
 40
0
 40
0
 40
1
 40
1
 40
1
 40
1
 10
102.833828
 20
35.494101
 30
0.0
 10
77.083562
 20
35.527570
 30
0.0
 10
52.424198
 20
45.488420
 30
0.0
 10
33.913545
 20
63.160712
 30
0.0
  0
LINE
  5
162
100
AcDbEntity
  8
Layer_1
 62
7
100
AcDbLine
 10
33.913545
 20
63.160712
 30
0.0
 11
33.877307
 21
63.564095
 31
0.0
  0
LINE
  5
163
100
AcDbEntity
  8
Layer_1
 62
7
100
AcDbLine
 10
33.877307
 20
63.564095
 30
0.0
 11
33.877307
 21
100.231716
 31
0.0
  0
LINE
  5
164
100
AcDbEntity
  8
Layer_1
 62
7
100
AcDbLine
 10
33.877307
 20
100.231716
 30
0.0
 11
36.977301
 21
100.231716
 31
0.0
  0
LINE
  5
165
100
AcDbEntity
  8
Layer_1
 62
7
100
AcDbLine
 10
36.977301
 20
100.231716
 30
0.0
 11
36.977301
 21
113.231718
 31
0.0
  0
LINE
  5
166
100
AcDbEntity
  8
Layer_1
 62
7
100
AcDbLine
 10
36.977301
 20
113.231718
 30
0.0
 11
33.877307
 21
113.231718
 31
0.0
  0
LINE
  5
167
100
AcDbEntity
  8
Layer_1
 62
7
100
AcDbLine
 10
33.877307
 20
113.231718
 30
0.0
 11
33.877307
 21
124.715363
 31
0.0
  0
LINE
  5
168
100
AcDbEntity
  8
Layer_1
 62
7
100
AcDbLine
 10
33.877307
 20
124.715363
 30
0.0
 11
29.537522
 21
124.630914
 31
0.0
  0
LINE
  5
169
100
AcDbEntity
  8
Layer_1
 62
7
100
AcDbLine
 10
179.355562
 20
32.902934
 30
0.0
 11
192.255573
 21
32.902934
 31
0.0
  0
LINE
  5
16a
100
AcDbEntity
  8
Layer_1
 62
7
100
AcDbLine
 10
192.255573
 20
32.902934
 30
0.0
 11
192.255573
 21
7.902956
 31
0.0
  0
LINE
  5
16b
100
AcDbEntity
  8
Layer_1
 62
7
100
AcDbLine
 10
179.355562
 20
7.902956
 30
0.0
 11
179.355562
 21
32.902934
 31
0.0
  0
LINE
  5
16c
100
AcDbEntity
  8
Layer_1
 62
7
100
AcDbLine
 10
198.257367
 20
7.963351
 30
0.0
 11
198.257367
 21
2.963333
 31
0.0
  0
LINE
  5
16d
100
AcDbEntity
  8
Layer_1
 62
7
100
AcDbLine
 10
198.257367
 20
2.963333
 30
0.0
 11
173.257360
 21
2.963333
 31
0.0
  0
LINE
  5
16e
100
AcDbEntity
  8
Layer_1
 62
7
100
AcDbLine
 10
173.257360
 20
2.963333
 30
0.0
 11
173.257360
 21
7.963351
 31
0.0
  0
LINE
  5
16f
100
AcDbEntity
  8
Layer_1
 62
7
100
AcDbLine
 10
173.257360
 20
7.963351
 30
0.0
 11
179.355562
 21
7.963351
 31
0.0
  0
LINE
  5
170
100
AcDbEntity
  8
Layer_1
 62
7
100
AcDbLine
 10
192.255573
 20
7.963351
 30
0.0
 11
198.257367
 21
7.963351
 31
0.0
  0
SPLINE
  5
171
100
AcDbEntity
  8
Layer_1
 62
7
100
AcDbSpline
 70
8
 71
3
 72
8
 73
4
 74
0
 40
0
 40
0
 40
0
 40
0
 40
1
 40
1
 40
1
 40
1
 10
187.027265
 20
29.779383
 30
0.0
 10
187.027265
 20
30.315286
 30
0.0
 10
186.741364
 20
30.810480
 30
0.0
 10
186.277259
 20
31.078431
 30
0.0
  0
SPLINE
  5
172
100
AcDbEntity
  8
Layer_1
 62
7
100
AcDbSpline
 70
8
 71
3
 72
8
 73
4
 74
0
 40
0
 40
0
 40
0
 40
0
 40
1
 40
1
 40
1
 40
1
 10
186.277259
 20
31.078431
 30
0.0
 10
185.813154
 20
31.346382
 30
0.0
 10
185.241353
 20
31.346382
 30
0.0
 10
184.777248
 20
31.078431
 30
0.0
  0
SPLINE
  5
173
100
AcDbEntity
  8
Layer_1
 62
7
100
AcDbSpline
 70
8
 71
3
 72
8
 73
4
 74
0
 40
0
 40
0
 40
0
 40
0
 40
1
 40
1
 40
1
 40
1
 10
184.777248
 20
31.078431
 30
0.0
 10
184.313143
 20
30.810480
 30
0.0
 10
184.027243
 20
30.315286
 30
0.0
 10
184.027243
 20
29.779383
 30
0.0
  0
SPLINE
  5
174
100
AcDbEntity
  8
Layer_1
 62
7
100
AcDbSpline
 70
8
 71
3
 72
8
 73
4
 74
0
 40
0
 40
0
 40
0
 40
0
 40
1
 40
1
 40
1
 40
1
 10
184.027243
 20
29.779383
 30
0.0
 10
184.027243
 20
29.243481
 30
0.0
 10
184.313143
 20
28.748287
 30
0.0
 10
184.777248
 20
28.480336
 30
0.0
  0
SPLINE
  5
175
100
AcDbEntity
  8
Layer_1
 62
7
100
AcDbSpline
 70
8
 71
3
 72
8
 73
4
 74
0
 40
0
 40
0
 40
0
 40
0
 40
1
 40
1
 40
1
 40
1
 10
184.777248
 20
28.480336
 30
0.0
 10
185.241353
 20
28.212384
 30
0.0
 10
185.813154
 20
28.212384
 30
0.0
 10
186.277259
 20
28.480336
 30
0.0
  0
SPLINE
  5
176
100
AcDbEntity
  8
Layer_1
 62
7
100
AcDbSpline
 70
8
 71
3
 72
8
 73
4
 74
0
 40
0
 40
0
 40
0
 40
0
 40
1
 40
1
 40
1
 40
1
 10
186.277259
 20
28.480336
 30
0.0
 10
186.741364
 20
28.748287
 30
0.0
 10
187.027265
 20
29.243481
 30
0.0
 10
187.027265
 20
29.779383
 30
0.0
  0
LINE
  5
177
100
AcDbEntity
  8
Layer_1
 62
7
100
AcDbLine
 10
187.027265
 20
29.779383
 30
0.0
 11
187.027265
 21
29.779383
 31
0.0
  0
SPLINE
  5
178
100
AcDbEntity
  8
Layer_1
 62
7
100
AcDbSpline
 70
8
 71
3
 72
8
 73
4
 74
0
 40
0
 40
0
 40
0
 40
0
 40
1
 40
1
 40
1
 40
1
 10
150.360587
 20
29.779383
 30
0.0
 10
150.361679
 20
30.316007
 30
0.0
 10
150.076020
 20
30.812337
 30
0.0
 10
149.611471
 20
31.080964
 30
0.0
  0
SPLINE
  5
179
100
AcDbEntity
  8
Layer_1
 62
7
100
AcDbSpline
 70
8
 71
3
 72
8
 73
4
 74
0
 40
0
 40
0
 40
0
 40
0
 40
1
 40
1
 40
1
 40
1
 10
149.611471
 20
31.080964
 30
0.0
 10
149.146922
 20
31.349592
 30
0.0
 10
148.574258
 20
31.349592
 30
0.0
 10
148.109709
 20
31.080964
 30
0.0
  0
SPLINE
  5
17a
100
AcDbEntity
  8
Layer_1
 62
7
100
AcDbSpline
 70
8
 71
3
 72
8
 73
4
 74
0
 40
0
 40
0
 40
0
 40
0
 40
1
 40
1
 40
1
 40
1
 10
148.109709
 20
31.080964
 30
0.0
 10
147.645160
 20
30.812337
 30
0.0
 10
147.359501
 20
30.316007
 30
0.0
 10
147.360593
 20
29.779383
 30
0.0
  0
SPLINE
  5
17b
100
AcDbEntity
  8
Layer_1
 62
7
100
AcDbSpline
 70
8
 71
3
 72
8
 73
4
 74
0
 40
0
 40
0
 40
0
 40
0
 40
1
 40
1
 40
1
 40
1
 10
147.360593
 20
29.779383
 30
0.0
 10
147.359501
 20
29.242759
 30
0.0
 10
147.645160
 20
28.746430
 30
0.0
 10
148.109709
 20
28.477802
 30
0.0
  0
SPLINE
  5
17c
100
AcDbEntity
  8
Layer_1
 62
7
100
AcDbSpline
 70
8
 71
3
 72
8
 73
4
 74
0
 40
0
 40
0
 40
0
 40
0
 40
1
 40
1
 40
1
 40
1
 10
148.109709
 20
28.477802
 30
0.0
 10
148.574258
 20
28.209174
 30
0.0
 10
149.146922
 20
28.209174
 30
0.0
 10
149.611471
 20
28.477802
 30
0.0
  0
SPLINE
  5
17d
100
AcDbEntity
  8
Layer_1
 62
7
100
AcDbSpline
 70
8
 71
3
 72
8
 73
4
 74
0
 40
0
 40
0
 40
0
 40
0
 40
1
 40
1
 40
1
 40
1
 10
149.611471
 20
28.477802
 30
0.0
 10
150.076020
 20
28.746430
 30
0.0
 10
150.361679
 20
29.242759
 30
0.0
 10
150.360587
 20
29.779383
 30
0.0
  0
LINE
  5
17e
100
AcDbEntity
  8
Layer_1
 62
7
100
AcDbLine
 10
150.360587
 20
29.779383
 30
0.0
 11
150.360587
 21
29.779383
 31
0.0
  0
LINE
  5
17f
100
AcDbEntity
  8
Layer_1
 62
7
100
AcDbLine
 10
161.590689
 20
2.963333
 30
0.0
 11
136.590682
 21
2.963333
 31
0.0
  0
LINE
  5
180
100
AcDbEntity
  8
Layer_1
 62
7
100
AcDbLine
 10
161.590689
 20
7.963351
 30
0.0
 11
161.590689
 21
2.963333
 31
0.0
  0
LINE
  5
181
100
AcDbEntity
  8
Layer_1
 62
7
100
AcDbLine
 10
136.590682
 20
7.963351
 30
0.0
 11
142.688884
 21
7.963351
 31
0.0
  0
LINE
  5
182
100
AcDbEntity
  8
Layer_1
 62
7
100
AcDbLine
 10
142.688884
 20
7.902956
 30
0.0
 11
142.688884
 21
32.902934
 31
0.0
  0
LINE
  5
183
100
AcDbEntity
  8
Layer_1
 62
7
100
AcDbLine
 10
136.590682
 20
2.963333
 30
0.0
 11
136.590682
 21
7.963351
 31
0.0
  0
LINE
  5
184
100
AcDbEntity
  8
Layer_1
 62
7
100
AcDbLine
 10
155.588895
 20
32.902934
 30
0.0
 11
155.588895
 21
7.902956
 31
0.0
  0
LINE
  5
185
100
AcDbEntity
  8
Layer_1
 62
7
100
AcDbLine
 10
142.688884
 20
32.902934
 30
0.0
 11
155.588895
 21
32.902934
 31
0.0
  0
LINE
  5
186
100
AcDbEntity
  8
Layer_1
 62
7
100
AcDbLine
 10
155.588895
 20
7.963351
 30
0.0
 11
161.590689
 21
7.963351
 31
0.0
  0
SPLINE
  5
187
100
AcDbEntity
  8
Layer_1
 62
7
100
AcDbSpline
 70
8
 71
3
 72
8
 73
4
 74
0
 40
0
 40
0
 40
0
 40
0
 40
1
 40
1
 40
1
 40
1
 10
113.693909
 20
29.779383
 30
0.0
 10
113.695001
 20
30.316007
 30
0.0
 10
113.409342
 20
30.812337
 30
0.0
 10
112.944793
 20
31.080964
 30
0.0
  0
SPLINE
  5
188
100
AcDbEntity
  8
Layer_1
 62
7
100
AcDbSpline
 70
8
 71
3
 72
8
 73
4
 74
0
 40
0
 40
0
 40
0
 40
0
 40
1
 40
1
 40
1
 40
1
 10
112.944793
 20
31.080964
 30
0.0
 10
112.480244
 20
31.349592
 30
0.0
 10
111.907580
 20
31.349592
 30
0.0
 10
111.443031
 20
31.080964
 30
0.0
  0
SPLINE
  5
189
100
AcDbEntity
  8
Layer_1
 62
7
100
AcDbSpline
 70
8
 71
3
 72
8
 73
4
 74
0
 40
0
 40
0
 40
0
 40
0
 40
1
 40
1
 40
1
 40
1
 10
111.443031
 20
31.080964
 30
0.0
 10
110.978482
 20
30.812337
 30
0.0
 10
110.692823
 20
30.316007
 30
0.0
 10
110.693915
 20
29.779383
 30
0.0
  0
SPLINE
  5
18a
100
AcDbEntity
  8
Layer_1
 62
7
100
AcDbSpline
 70
8
 71
3
 72
8
 73
4
 74
0
 40
0
 40
0
 40
0
 40
0
 40
1
 40
1
 40
1
 40
1
 10
110.693915
 20
29.779383
 30
0.0
 10
110.692823
 20
29.242759
 30
0.0
 10
110.978482
 20
28.746430
 30
0.0
 10
111.443031
 20
28.477802
 30
0.0
  0
SPLINE
  5
18b
100
AcDbEntity
  8
Layer_1
 62
7
100
AcDbSpline
 70
8
 71
3
 72
8
 73
4
 74
0
 40
0
 40
0
 40
0
 40
0
 40
1
 40
1
 40
1
 40
1
 10
111.443031
 20
28.477802
 30
0.0
 10
111.907580
 20
28.209174
 30
0.0
 10
112.480244
 20
28.209174
 30
0.0
 10
112.944793
 20
28.477802
 30
0.0
  0
SPLINE
  5
18c
100
AcDbEntity
  8
Layer_1
 62
7
100
AcDbSpline
 70
8
 71
3
 72
8
 73
4
 74
0
 40
0
 40
0
 40
0
 40
0
 40
1
 40
1
 40
1
 40
1
 10
112.944793
 20
28.477802
 30
0.0
 10
113.409342
 20
28.746430
 30
0.0
 10
113.695001
 20
29.242759
 30
0.0
 10
113.693909
 20
29.779383
 30
0.0
  0
LINE
  5
18d
100
AcDbEntity
  8
Layer_1
 62
7
100
AcDbLine
 10
113.693909
 20
29.779383
 30
0.0
 11
113.693909
 21
29.779383
 31
0.0
  0
LINE
  5
18e
100
AcDbEntity
  8
Layer_1
 62
7
100
AcDbLine
 10
124.924011
 20
2.963333
 30
0.0
 11
99.924033
 21
2.963333
 31
0.0
  0
LINE
  5
18f
100
AcDbEntity
  8
Layer_1
 62
7
100
AcDbLine
 10
124.924011
 20
7.963351
 30
0.0
 11
124.924011
 21
2.963333
 31
0.0
  0
LINE
  5
190
100
AcDbEntity
  8
Layer_1
 62
7
100
AcDbLine
 10
99.924033
 20
7.963351
 30
0.0
 11
106.022206
 21
7.963351
 31
0.0
  0
LINE
  5
191
100
AcDbEntity
  8
Layer_1
 62
7
100
AcDbLine
 10
106.022206
 20
7.902956
 30
0.0
 11
106.022206
 21
32.902934
 31
0.0
  0
LINE
  5
192
100
AcDbEntity
  8
Layer_1
 62
7
100
AcDbLine
 10
99.924033
 20
2.963333
 30
0.0
 11
99.924033
 21
7.963351
 31
0.0
  0
LINE
  5
193
100
AcDbEntity
  8
Layer_1
 62
7
100
AcDbLine
 10
118.922217
 20
32.902934
 30
0.0
 11
118.922217
 21
7.902956
 31
0.0
  0
LINE
  5
194
100
AcDbEntity
  8
Layer_1
 62
7
100
AcDbLine
 10
106.022206
 20
32.902934
 30
0.0
 11
118.922217
 21
32.902934
 31
0.0
  0
LINE
  5
195
100
AcDbEntity
  8
Layer_1
 62
7
100
AcDbLine
 10
118.922217
 20
7.963351
 30
0.0
 11
124.924011
 21
7.963351
 31
0.0
  0
SPLINE
  5
196
100
AcDbEntity
  8
Layer_1
 62
7
100
AcDbSpline
 70
8
 71
3
 72
8
 73
4
 74
0
 40
0
 40
0
 40
0
 40
0
 40
1
 40
1
 40
1
 40
1
 10
77.027259
 20
29.779383
 30
0.0
 10
77.027259
 20
30.315286
 30
0.0
 10
76.741359
 20
30.810480
 30
0.0
 10
76.277253
 20
31.078431
 30
0.0
  0
SPLINE
  5
197
100
AcDbEntity
  8
Layer_1
 62
7
100
AcDbSpline
 70
8
 71
3
 72
8
 73
4
 74
0
 40
0
 40
0
 40
0
 40
0
 40
1
 40
1
 40
1
 40
1
 10
76.277253
 20
31.078431
 30
0.0
 10
75.813148
 20
31.346382
 30
0.0
 10
75.241347
 20
31.346382
 30
0.0
 10
74.777242
 20
31.078431
 30
0.0
  0
SPLINE
  5
198
100
AcDbEntity
  8
Layer_1
 62
7
100
AcDbSpline
 70
8
 71
3
 72
8
 73
4
 74
0
 40
0
 40
0
 40
0
 40
0
 40
1
 40
1
 40
1
 40
1
 10
74.777242
 20
31.078431
 30
0.0
 10
74.313137
 20
30.810480
 30
0.0
 10
74.027237
 20
30.315286
 30
0.0
 10
74.027237
 20
29.779383
 30
0.0
  0
SPLINE
  5
199
100
AcDbEntity
  8
Layer_1
 62
7
100
AcDbSpline
 70
8
 71
3
 72
8
 73
4
 74
0
 40
0
 40
0
 40
0
 40
0
 40
1
 40
1
 40
1
 40
1
 10
74.027237
 20
29.779383
 30
0.0
 10
74.027237
 20
28.950950
 30
0.0
 10
74.698815
 20
28.279372
 30
0.0
 10
75.527248
 20
28.279372
 30
0.0
  0
SPLINE
  5
19a
100
AcDbEntity
  8
Layer_1
 62
7
100
AcDbSpline
 70
8
 71
3
 72
8
 73
4
 74
0
 40
0
 40
0
 40
0
 40
0
 40
1
 40
1
 40
1
 40
1
 10
75.527248
 20
28.279372
 30
0.0
 10
76.355681
 20
28.279372
 30
0.0
 10
77.027259
 20
28.950950
 30
0.0
 10
77.027259
 20
29.779383
 30
0.0
  0
LINE
  5
19b
100
AcDbEntity
  8
Layer_1
 62
7
100
AcDbLine
 10
77.027259
 20
29.779383
 30
0.0
 11
77.027259
 21
29.779383
 31
0.0
  0
LINE
  5
19c
100
AcDbEntity
  8
Layer_1
 62
7
100
AcDbLine
 10
88.257361
 20
2.963333
 30
0.0
 11
63.257355
 21
2.963333
 31
0.0
  0
LINE
  5
19d
100
AcDbEntity
  8
Layer_1
 62
7
100
AcDbLine
 10
88.257361
 20
7.963351
 30
0.0
 11
88.257361
 21
2.963333
 31
0.0
  0
LINE
  5
19e
100
AcDbEntity
  8
Layer_1
 62
7
100
AcDbLine
 10
63.257355
 20
7.963351
 30
0.0
 11
69.355556
 21
7.963351
 31
0.0
  0
LINE
  5
19f
100
AcDbEntity
  8
Layer_1
 62
7
100
AcDbLine
 10
69.355556
 20
7.902956
 30
0.0
 11
69.355556
 21
32.902934
 31
0.0
  0
LINE
  5
1a0
100
AcDbEntity
  8
Layer_1
 62
7
100
AcDbLine
 10
63.257355
 20
2.963333
 30
0.0
 11
63.257355
 21
7.963351
 31
0.0
  0
LINE
  5
1a1
100
AcDbEntity
  8
Layer_1
 62
7
100
AcDbLine
 10
82.255567
 20
32.902934
 30
0.0
 11
82.255567
 21
7.902956
 31
0.0
  0
LINE
  5
1a2
100
AcDbEntity
  8
Layer_1
 62
7
100
AcDbLine
 10
69.355556
 20
32.902934
 30
0.0
 11
82.255567
 21
32.902934
 31
0.0
  0
LINE
  5
1a3
100
AcDbEntity
  8
Layer_1
 62
7
100
AcDbLine
 10
82.255567
 20
7.963351
 30
0.0
 11
88.257361
 21
7.963351
 31
0.0
  0
ENDSEC
  0
SECTION
  2
OBJECTS
  0
DICTIONARY
  5
C
330
0
100
AcDbDictionary
  3
ACAD_GROUP
350
D
  3
ACAD_MLINESTYLE
350
17
  0
DICTIONARY
  5
D
330
C
100
AcDbDictionary
  0
DICTIONARY
  5
1A
330
C
100
AcDbDictionary
  0
DICTIONARY
  5
17
330
C
100
AcDbDictionary
  3
STANDARD
350
18
  0
DICTIONARY
  5
19
330
C
100
AcDbDictionary
  0
ENDSEC
  0
EOF
