0
SECTION
2
HEADER
9
$INSUNITS
70
4
9
$ACADVER
1
AC1014
9
$HANDSEED
5
FFFF
0
ENDSEC
0
SECTION
2
TABLES
0
TABLE
2
VPORT
5
8
100
AcDbSymbolTable
0
ENDTAB
0
TABLE
2
LTYPE
5
5
100
AcDbSymbolTable
0
LTYPE
5
14
100
AcDbSymbolTableRecord
100
AcDbLinetypeTableRecord
2
BYBLOCK
70
0
0
LTYPE
5
15
100
AcDbSymbolTableRecord
100
AcDbLinetypeTableRecord
2
BYLAYER
70
0
0
ENDTAB
0
TABLE
2
LAYER
5
2
100
AcDbSymbolTable
70
2
0
LAYER
5
50
100
AcDbSymbolTableRecord
100
AcDbLayerTableRecord
2
0
70
0
6
CONTINUOUS
0
ENDTAB
0
TABLE
2
STYLE
5
3
100
AcDbSymbolTable
70
1
0
STYLE
5
11
100
AcDbSymbolTableRecord
100
AcDbTextStyleTableRecord
2
STANDARD
70
0
0
ENDTAB
0
TABLE
2
VIEW
5
6
100
AcDbSymbolTable
70
0
0
ENDTAB
0
TABLE
2
UCS
5
7
100
AcDbSymbolTable
70
0
0
ENDTAB
0
TABLE
2
APPID
5
9
100
AcDbSymbolTable
70
2
0
APPID
5
12
100
AcDbSymbolTableRecord
100
AcDbRegAppTableRecord
2
ACAD
70
0
0
ENDTAB
0
TABLE
2
DIMSTYLE
5
A
100
AcDbSymbolTable
70
1
0
ENDTAB
0
TABLE
2
BLOCK_RECORD
5
1
100
AcDbSymbolTable
70
1
0
BLOCK_RECORD
5
1F
100
AcDbSymbolTableRecord
100
AcDbBlockTableRecord
2
*MODEL_SPACE
0
BLOCK_RECORD
5
1B
100
AcDbSymbolTableRecord
100
AcDbBlockTableRecord
2
*PAPER_SPACE
0
ENDTAB
0
ENDSEC
0
SECTION
2
BLOCKS
0
BLOCK
5
20
100
AcDbEntity
100
AcDbBlockBegin
2
*MODEL_SPACE
0
ENDBLK
5
21
100
AcDbEntity
100
AcDbBlockEnd
0
BLOCK
5
1C
100
AcDbEntity
100
AcDbBlockBegin
2
*PAPER_SPACE
0
ENDBLK
5
1D
100
AcDbEntity
100
AcDbBlockEnd
0
ENDSEC
0
SECTION
2
ENTITIES
0
CIRCLE
5
100
100
AcDbEntity
8
0
100
AcDbCircle
10
-10
20
10
30
0
40
100.00000000000001
210
0
220
0
230
1
0
CIRCLE
5
101
100
AcDbEntity
8
0
100
AcDbCircle
10
-90
20
50
30
0
40
1.5000000000000002
210
0
220
0
230
1
0
CIRCLE
5
102
100
AcDbEntity
8
0
100
AcDbCircle
10
-94.548845569650723
20
35.064626160289251
30
0
40
1.5000000000000002
210
0
220
0
230
1
0
CIRCLE
5
103
100
AcDbEntity
8
0
100
AcDbCircle
10
-4.6410161513775723
20
-79.282032302755098
30
0
40
1.5000000000000002
210
0
220
0
230
1
0
CIRCLE
5
104
100
AcDbEntity
8
0
100
AcDbCircle
10
64.641016151377556
20
59.282032302755063
30
0
40
1.5000000000000002
210
0
220
0
230
1
0
CIRCLE
5
105
100
AcDbEntity
8
0
100
AcDbCircle
10
10.567819793654845
20
-75.753761204109551
30
0
40
1.5000000000000002
210
0
220
0
230
1
0
CIRCLE
5
106
100
AcDbEntity
8
0
100
AcDbCircle
10
53.981025775995874
20
70.689135043820272
30
0
40
1.5000000000000002
210
0
220
0
230
1
0
CIRCLE
5
107
100
AcDbEntity
8
0
100
AcDbCircle
10
238.53892431345389
20
-66.021635966915255
30
0
40
1.5000000000000002
210
0
220
0
230
1
0
CIRCLE
5
108
100
AcDbEntity
8
0
100
AcDbCircle
10
133.42225895014874
20
44.796751397483099
30
0
40
1.5000000000000002
210
0
220
0
230
1
0
CIRCLE
5
109
100
AcDbEntity
8
0
100
AcDbCircle
10
281.95213029579475
20
80.421260281013957
30
0
40
1.5000000000000002
210
0
220
0
230
1
0
CIRCLE
5
110
100
AcDbEntity
8
0
100
AcDbCircle
10
-169.28228372364569
20
61.6330202411973
30
0
40
1.5000000000000002
210
0
220
0
230
1
0
CIRCLE
5
111
100
AcDbEntity
8
0
100
AcDbCircle
10
-238.56431602640055
20
-76.931044364312257
30
0
40
1.5000000000000002
210
0
220
0
230
1
0
CIRCLE
5
112
100
AcDbEntity
8
0
100
AcDbCircle
10
-323.92329987502256
20
52.350987938442287
30
0
40
1.5000000000000002
210
0
220
0
230
1
0
CIRCLE
5
113
100
AcDbEntity
8
0
100
AcDbCircle
10
-243.92329987502293
20
12.350987938442445
30
0
40
100.00000000000001
210
0
220
0
230
1
0
CIRCLE
5
114
100
AcDbEntity
8
0
100
AcDbCircle
10
-239.75780212555182
20
36.289868360649756
30
0
40
1.7500000000000071
210
0
220
0
230
1
0
CIRCLE
5
115
100
AcDbEntity
8
0
100
AcDbCircle
10
-249.75780212555182
20
36.289868360649756
30
0
40
1.7500000000000071
210
0
220
0
230
1
0
CIRCLE
5
116
100
AcDbEntity
8
0
100
AcDbCircle
10
-239.75780212555185
20
-13.710131639350243
30
0
40
1.7499999999999898
210
0
220
0
230
1
0
CIRCLE
5
117
100
AcDbEntity
8
0
100
AcDbCircle
10
-249.75780212555185
20
-13.710131639350243
30
0
40
1.7500000000000071
210
0
220
0
230
1
0
CIRCLE
5
118
100
AcDbEntity
8
0
100
AcDbCircle
10
236.61287546763884
20
98.221581577645992
30
0
40
1.7500000000000162
210
0
220
0
230
1
0
CIRCLE
5
119
100
AcDbEntity
8
0
100
AcDbCircle
10
196.61287546763884
20
98.221581577645992
30
0
40
1.7500000000000071
210
0
220
0
230
1
0
CIRCLE
5
120
100
AcDbEntity
8
0
100
AcDbCircle
10
236.59558973382622
20
40.451973793882289
30
0
40
1.7500000000000071
210
0
220
0
230
1
0
CIRCLE
5
121
100
AcDbEntity
8
0
100
AcDbCircle
10
199.09558973382622
20
40.451973793882289
30
0
40
1.7500000000000098
210
0
220
0
230
1
0
CIRCLE
5
122
100
AcDbEntity
8
0
100
AcDbCircle
10
236.59558973382622
20
2.9519737938822921
30
0
40
1.749999999999988
210
0
220
0
230
1
0
CIRCLE
5
123
100
AcDbEntity
8
0
100
AcDbCircle
10
199.09558973382622
20
2.9519737938822921
30
0
40
1.7500000000000098
210
0
220
0
230
1
0
CIRCLE
5
124
100
AcDbEntity
8
0
100
AcDbCircle
10
-34.754588622812967
20
36.932504533839676
30
0
40
1.7500000000000084
210
0
220
0
230
1
0
CIRCLE
5
125
100
AcDbEntity
8
0
100
AcDbCircle
10
13.745411377187047
20
36.932504533839676
30
0
40
1.750000000000014
210
0
220
0
230
1
0
CIRCLE
5
126
100
AcDbEntity
8
0
100
AcDbCircle
10
-0.75458862281296835
20
-15.067495466160317
30
0
40
1.749999999999986
210
0
220
0
230
1
0
CIRCLE
5
127
100
AcDbEntity
8
0
100
AcDbCircle
10
-28.754588622812967
20
-15.067495466160317
30
0
40
1.7500000000000071
210
0
220
0
230
1
0
LWPOLYLINE
5
128
100
AcDbEntity
8
0
100
AcDbPolyline
90
4
70
1
43
0.0
10
20
20
60
10
-50
20
60
10
-50
20
57
10
20
20
57
0
LWPOLYLINE
5
129
100
AcDbEntity
8
0
100
AcDbPolyline
90
4
70
1
43
0.0
10
-50.651893287459906
20
-35.584455935219069
10
-50.651893287459906
20
-38.584455935219061
10
19.348106712540094
20
-38.584455935219061
10
19.348106712540094
20
-35.584455935219054
0
LWPOLYLINE
5
130
100
AcDbEntity
8
0
100
AcDbPolyline
90
4
70
1
43
0.0
10
63.099999999999994
20
20
10
60
20
20
10
60
20
8.1862167767463099
10
63.099999999999994
20
8.1862167767463099
0
LWPOLYLINE
5
131
100
AcDbEntity
8
0
100
AcDbPolyline
90
4
70
1
43
0.0
10
60
20
-10
10
63.099999999999994
20
-10
10
63.099999999999994
20
0.8370075168057145
10
60
20
0.8370075168057145
0
LWPOLYLINE
5
132
100
AcDbEntity
8
0
100
AcDbPolyline
90
4
70
1
43
0.0
10
29.399999999999999
20
20
10
32.5
20
20
10
32.5
20
8.1862167767463099
10
29.399999999999999
20
8.1862167767463099
0
LWPOLYLINE
5
133
100
AcDbEntity
8
0
100
AcDbPolyline
90
4
70
1
43
0.0
10
32.5
20
-10
10
29.399999999999999
20
-10
10
29.399999999999999
20
0.83700751680571672
10
32.5
20
0.8370075168057145
0
LWPOLYLINE
5
134
100
AcDbEntity
8
0
100
AcDbPolyline
90
4
70
1
43
0.0
10
186.89821212644921
20
64.402772597401139
10
246.89821212644921
20
64.402772597401139
10
246.89821212644921
20
67.402772597401139
10
186.89821212644921
20
67.402772597401139
0
LWPOLYLINE
5
135
100
AcDbEntity
8
0
100
AcDbPolyline
90
4
70
1
43
0.0
10
189.04399691314907
20
-27.938522123013229
10
249.04399691314907
20
-27.938522123013243
10
249.04399691314907
20
-24.938522123013236
10
189.04399691314904
20
-24.938522123013236
0
LWPOLYLINE
5
136
100
AcDbEntity
8
0
100
AcDbPolyline
90
4
70
1
43
0.0
10
287.08461067312356
20
-5.5302883303605288
10
287.08461067312356
20
7.4697116696394694
10
283.9846106731236
20
7.4697116696394694
10
283.9846106731236
20
-5.5302883303605288
0
LWPOLYLINE
5
137
100
AcDbEntity
8
0
100
AcDbPolyline
90
4
70
1
43
0.0
10
261.88461067312357
20
7.4697116696394694
10
261.88461067312357
20
-5.5302883303605288
10
264.98461067312354
20
-5.5302883303605288
10
264.98461067312354
20
7.4697116696394694
0
LWPOLYLINE
5
138
100
AcDbEntity
8
0
100
AcDbPolyline
90
4
70
1
43
0.0
10
174.08461067312356
20
-5.5302883303605288
10
174.08461067312356
20
7.4697116696394694
10
170.98461067312357
20
7.4697116696394694
10
170.98461067312357
20
-5.5302883303605288
0
LWPOLYLINE
5
139
100
AcDbEntity
8
0
100
AcDbPolyline
90
4
70
1
43
0.0
10
148.88461067312357
20
-5.5302883303605288
10
151.98461067312354
20
-5.5302883303605288
10
151.98461067312354
20
7.4697116696394694
10
148.88461067312357
20
7.4697116696394694
0
LWPOLYLINE
5
140
100
AcDbEntity
8
0
100
AcDbPolyline
90
7
70
1
43
0.0
10
316.22068663058366
20
8.8690212006275981
10
291.22068663058366
20
8.8690212006275981
10
291.22068663058366
20
-48.345027469095392
42
-0.43658269051041826
10
144.54482851893161
20
-48.154412402049545
10
144.54482851893161
20
8.8690212006275981
10
118.56289072088443
20
8.8690212006275679
42
-1.1152308224833698
10
317.3793183187139
20
8.8690212006275981
0
LINE
5
141
100
AcDbEntity
8
0
100
AcDbLine
10
294.36285592636358
20
-82.85893420935524
30
0
11
307.26285592636356
21
-82.85893420935524
31
0
0
LINE
5
142
100
AcDbEntity
8
0
100
AcDbLine
10
307.26285592636356
20
-82.85893420935524
30
0
11
307.26285592636356
21
-107.85893420935524
31
0
0
LINE
5
143
100
AcDbEntity
8
0
100
AcDbLine
10
294.36285592636358
20
-107.85893420935524
30
0
11
294.36285592636358
21
-82.85893420935524
31
0
0
LINE
5
144
100
AcDbEntity
8
0
100
AcDbLine
10
313.26466092213172
20
-107.79854208353291
30
0
11
313.26466092213172
21
-112.79854208353291
31
0
0
LINE
5
145
100
AcDbEntity
8
0
100
AcDbLine
10
313.26466092213172
20
-112.79854208353291
30
0
11
288.26466092213172
21
-112.79854208353291
31
0
0
LINE
5
146
100
AcDbEntity
8
0
100
AcDbLine
10
288.26466092213172
20
-112.79854208353291
30
0
11
288.26466092213172
21
-107.79854208353291
31
0
0
LINE
5
147
100
AcDbEntity
8
0
100
AcDbLine
10
288.26466092213172
20
-107.79854208353291
30
0
11
294.36285592636358
21
-107.79854208353291
31
0
0
LINE
5
148
100
AcDbEntity
8
0
100
AcDbLine
10
307.26285592636356
20
-107.79854208353291
30
0
11
313.26466092213172
21
-107.79854208353291
31
0
0
CIRCLE
5
149
100
AcDbEntity
8
0
100
AcDbCircle
10
300.53454882538239
20
-85.982506225667237
30
0
40
1.5000000000000098
210
0
220
0
230
1
0
CIRCLE
5
150
100
AcDbEntity
8
0
100
AcDbCircle
10
263.8678821587157
20
-85.982506225667237
30
0
40
1.5000000000000098
210
0
220
0
230
1
0
LINE
5
151
100
AcDbEntity
8
0
100
AcDbLine
10
276.59799425546504
20
-112.79854208353291
30
0
11
251.59799425546507
21
-112.79854208353291
31
0
0
LINE
5
152
100
AcDbEntity
8
0
100
AcDbLine
10
276.59799425546504
20
-107.79854208353291
30
0
11
276.59799425546504
21
-112.79854208353291
31
0
0
LINE
5
153
100
AcDbEntity
8
0
100
AcDbLine
10
251.59799425546507
20
-107.79854208353291
30
0
11
257.69618925969689
21
-107.79854208353291
31
0
0
LINE
5
154
100
AcDbEntity
8
0
100
AcDbLine
10
257.69618925969689
20
-107.85893420935524
30
0
11
257.69618925969689
21
-82.85893420935524
31
0
0
LINE
5
155
100
AcDbEntity
8
0
100
AcDbLine
10
251.59799425546507
20
-112.79854208353291
30
0
11
251.59799425546507
21
-107.79854208353291
31
0
0
LINE
5
156
100
AcDbEntity
8
0
100
AcDbLine
10
270.59618925969687
20
-82.85893420935524
30
0
11
270.59618925969687
21
-107.85893420935524
31
0
0
LINE
5
157
100
AcDbEntity
8
0
100
AcDbLine
10
257.69618925969689
20
-82.85893420935524
30
0
11
270.59618925969687
21
-82.85893420935524
31
0
0
LINE
5
158
100
AcDbEntity
8
0
100
AcDbLine
10
270.59618925969687
20
-107.79854208353291
30
0
11
276.59799425546504
21
-107.79854208353291
31
0
0
CIRCLE
5
159
100
AcDbEntity
8
0
100
AcDbCircle
10
227.20121549204904
20
-85.982506225667237
30
0
40
1.5000000000000098
210
0
220
0
230
1
0
LINE
5
160
100
AcDbEntity
8
0
100
AcDbLine
10
239.93132758879841
20
-112.79854208353291
30
0
11
214.93132758879841
21
-112.79854208353291
31
0
0
LINE
5
161
100
AcDbEntity
8
0
100
AcDbLine
10
239.93132758879841
20
-107.79854208353291
30
0
11
239.93132758879841
21
-112.79854208353291
31
0
0
LINE
5
162
100
AcDbEntity
8
0
100
AcDbLine
10
214.93132758879841
20
-107.79854208353291
30
0
11
221.02952259303024
21
-107.79854208353291
31
0
0
LINE
5
163
100
AcDbEntity
8
0
100
AcDbLine
10
221.02952259303024
20
-107.85893420935524
30
0
11
221.02952259303024
21
-82.85893420935524
31
0
0
LINE
5
164
100
AcDbEntity
8
0
100
AcDbLine
10
214.93132758879841
20
-112.79854208353291
30
0
11
214.93132758879841
21
-107.79854208353291
31
0
0
LINE
5
165
100
AcDbEntity
8
0
100
AcDbLine
10
233.92952259303024
20
-82.85893420935524
30
0
11
233.92952259303024
21
-107.85893420935524
31
0
0
LINE
5
166
100
AcDbEntity
8
0
100
AcDbLine
10
221.02952259303024
20
-82.85893420935524
30
0
11
233.92952259303024
21
-82.85893420935524
31
0
0
LINE
5
167
100
AcDbEntity
8
0
100
AcDbLine
10
233.92952259303024
20
-107.79854208353291
30
0
11
239.93132758879841
21
-107.79854208353291
31
0
0
CIRCLE
5
168
100
AcDbEntity
8
0
100
AcDbCircle
10
190.53454882538236
20
-85.982506225667237
30
0
40
1.5000000000000098
210
0
220
0
230
1
0
LINE
5
169
100
AcDbEntity
8
0
100
AcDbLine
10
203.26466092213172
20
-112.79854208353291
30
0
11
178.26466092213172
21
-112.79854208353291
31
0
0
LINE
5
170
100
AcDbEntity
8
0
100
AcDbLine
10
203.26466092213172
20
-107.79854208353291
30
0
11
203.26466092213172
21
-112.79854208353291
31
0
0
LINE
5
171
100
AcDbEntity
8
0
100
AcDbLine
10
178.26466092213172
20
-107.79854208353291
30
0
11
184.36285592636355
21
-107.79854208353291
31
0
0
LINE
5
172
100
AcDbEntity
8
0
100
AcDbLine
10
184.36285592636355
20
-107.85893420935524
30
0
11
184.36285592636355
21
-82.85893420935524
31
0
0
LINE
5
173
100
AcDbEntity
8
0
100
AcDbLine
10
178.26466092213172
20
-112.79854208353291
30
0
11
178.26466092213172
21
-107.79854208353291
31
0
0
LINE
5
174
100
AcDbEntity
8
0
100
AcDbLine
10
197.26285592636356
20
-82.85893420935524
30
0
11
197.26285592636356
21
-107.85893420935524
31
0
0
LINE
5
175
100
AcDbEntity
8
0
100
AcDbLine
10
184.36285592636355
20
-82.85893420935524
30
0
11
197.26285592636356
21
-82.85893420935524
31
0
0
LINE
5
176
100
AcDbEntity
8
0
100
AcDbLine
10
197.26285592636356
20
-107.79854208353291
30
0
11
203.26466092213172
21
-107.79854208353291
31
0
0
LWPOLYLINE
5
177
100
AcDbEntity
8
0
100
AcDbPolyline
90
4
70
1
43
0.0
10
-60.68480974445724
20
39.764652294267179
10
-63.68480974445724
20
39.764652294267179
10
-63.68480974445724
20
-20.235347705732817
10
-60.68480974445724
20
-20.235347705732821
0
LWPOLYLINE
5
178
100
AcDbEntity
8
0
100
AcDbPolyline
90
4
70
1
43
0.0
10
-232.6870533233963
20
33.176415530664734
10
-257.6870533233963
20
33.176415530664734
10
-257.6870533233963
20
-10.823584469335273
10
-232.6870533233963
20
-10.823584469335273
0
ENDSEC
0
SECTION
2
OBJECTS
0
DICTIONARY
5
C
100
AcDbDictionary
3
ACAD_GROUP
350
D
3
ACAD_MLINESTYLE
350
17
0
DICTIONARY
5
D
100
AcDbDictionary
0
DICTIONARY
5
1A
330
C
100
AcDbDictionary
0
DICTIONARY
5
17
100
AcDbDictionary
0
ENDSEC
0
EOF
