<?xml version="1.0" encoding="UTF-8" standalone="no"?>
<!-- Created with Inkscape (http://www.inkscape.org/) -->

<svg
   xmlns:dc="http://purl.org/dc/elements/1.1/"
   xmlns:cc="http://creativecommons.org/ns#"
   xmlns:rdf="http://www.w3.org/1999/02/22-rdf-syntax-ns#"
   xmlns:svg="http://www.w3.org/2000/svg"
   xmlns="http://www.w3.org/2000/svg"
   xmlns:sodipodi="http://sodipodi.sourceforge.net/DTD/sodipodi-0.dtd"
   xmlns:inkscape="http://www.inkscape.org/namespaces/inkscape"
   width="210mm"
   height="297mm"
   viewBox="0 0 744.09448819 1052.3622047"
   id="svg2"
   version="1.1"
   inkscape:version="0.91 r13725"
   sodipodi:docname="trial_base.svg">
  <defs
     id="defs4">
    <marker
       orient="auto"
       id="DistanceX"
       style="overflow:visible"
       refX="0.0"
       refY="0.0">
      <path
         id="path4143"
         d="M 3,-3 L -3,3 M 0,-5 L  0,5"
         style="stroke:#000000; stroke-width:0.5" />
    </marker>
    <pattern
       id="Hatch"
       x="0"
       y="0"
       patternUnits="userSpaceOnUse"
       width="8"
       height="8">
      <path
         id="path4146"
         d="M8 4 l-4,4"
         stroke-width="0.25"
         stroke="#000000"
         linecap="square" />
      <path
         id="path4148"
         d="M6 2 l-4,4"
         stroke-width="0.25"
         stroke="#000000"
         linecap="square" />
      <path
         id="path4150"
         d="M4 0 l-4,4"
         stroke-width="0.25"
         stroke="#000000"
         linecap="square" />
    </pattern>
    <symbol
       id="*MODEL_SPACE" />
    <symbol
       id="*PAPER_SPACE" />
  </defs>
  <sodipodi:namedview
     id="base"
     pagecolor="#ffffff"
     bordercolor="#666666"
     borderopacity="1.0"
     inkscape:pageopacity="0.0"
     inkscape:pageshadow="2"
     inkscape:zoom="0.7"
     inkscape:cx="1144.7981"
     inkscape:cy="403.25371"
     inkscape:document-units="mm"
     inkscape:current-layer="layer1"
     showgrid="false"
     inkscape:window-width="1366"
     inkscape:window-height="745"
     inkscape:window-x="-8"
     inkscape:window-y="-8"
     inkscape:window-maximized="1" />
  <metadata
     id="metadata7">
    <rdf:RDF>
      <cc:Work
         rdf:about="">
        <dc:format>image/svg+xml</dc:format>
        <dc:type
           rdf:resource="http://purl.org/dc/dcmitype/StillImage" />
        <dc:title></dc:title>
      </cc:Work>
    </rdf:RDF>
  </metadata>
  <g
     inkscape:label="Layer 1"
     inkscape:groupmode="layer"
     id="layer1">
    <path
       inkscape:connector-curvature="0"
       style="fill:none;stroke:#000000"
       d="m 790.58941,546.35568 a 354.33071,354.33071 0 1 0 -708.66142,0 354.33071,354.33071 0 0 0 708.66142,0 z"
       id="path4156" />
    <path
       inkscape:connector-curvature="0"
       style="fill:none;stroke:#000000"
       d="m 158.10909,404.62343 a 5.314961,5.314961 0 1 0 -10.62992,0 5.314961,5.314961 0 1 0 10.62992,0 z"
       id="path4158" />
    <path
       inkscape:connector-curvature="0"
       style="fill:none;stroke:#000000"
       d="m 141.99114,457.54405 a 5.314961,5.314961 0 1 0 -10.62992,0 5.314961,5.314961 0 1 0 10.62992,0 z"
       id="path4160" />
    <path
       inkscape:connector-curvature="0"
       style="fill:none;stroke:#000000"
       d="m 460.56218,862.70938 a 5.314961,5.314961 0 1 0 -10.62992,0 5.314961,5.314961 0 1 0 10.62992,0 z"
       id="path4162" />
    <path
       inkscape:connector-curvature="0"
       style="fill:none;stroke:#000000"
       d="m 706.0497,371.73434 a 5.314961,5.314961 0 1 0 -10.62992,0 5.314961,5.314961 0 1 0 10.62992,0 z"
       id="path4164" />
    <path
       inkscape:connector-curvature="0"
       style="fill:none;stroke:#000000"
       d="m 514.45176,850.20758 a 5.314961,5.314961 0 1 0 -10.62992,0 5.314961,5.314961 0 1 0 10.62992,0 z"
       id="path4166" />
    <path
       inkscape:connector-curvature="0"
       style="fill:none;stroke:#000000"
       d="m 668.27808,331.31547 a 5.314961,5.314961 0 1 0 -10.62992,0 5.314961,5.314961 0 1 0 10.62992,0 z"
       id="path4168" />
    <path
       inkscape:connector-curvature="0"
       style="fill:none;stroke:#000000"
       d="m 1322.2234,815.72368 a 5.314961,5.314961 0 1 0 -10.6299,0 5.314961,5.314961 0 1 0 10.6299,0 z"
       id="path4170" />
    <path
       inkscape:connector-curvature="0"
       style="fill:none;stroke:#000000"
       d="m 949.76277,423.06014 a 5.314965,5.314965 0 1 0 -10.62993,0 5.314965,5.314965 0 0 0 10.62993,0 z"
       id="path4172" />
    <path
       inkscape:connector-curvature="0"
       style="fill:none;stroke:#000000"
       d="m 1476.0497,296.83156 a 5.314961,5.314961 0 1 0 -10.6299,0 5.314961,5.314961 0 1 0 10.6299,0 z"
       id="path4174" />
    <path
       inkscape:connector-curvature="0"
       style="fill:none;stroke:#000000"
       d="m -122.81238,363.40407 a 5.314965,5.314965 0 1 0 -10.62993,0 5.314965,5.314965 0 1 0 10.62993,0 z"
       id="path4176" />
    <path
       inkscape:connector-curvature="0"
       style="fill:none;stroke:#000000"
       d="m -368.2999,854.37908 a 5.314961,5.314961 0 1 0 -10.62992,0 5.314961,5.314961 0 1 0 10.62992,0 z"
       id="path4178" />
    <path
       inkscape:connector-curvature="0"
       style="fill:none;stroke:#000000"
       d="m -670.75303,396.29316 a 5.314961,5.314961 0 1 0 -10.6299,0 5.314961,5.314961 0 1 0 10.6299,0 z"
       id="path4180" />
    <path
       inkscape:connector-curvature="0"
       style="fill:none;stroke:#000000"
       d="m -38.27268,538.02548 a 354.33073,354.33073 0 1 0 -708.66145,0 354.33073,354.33073 0 1 0 708.66145,0 z"
       id="path4182" />
    <path
       inkscape:connector-curvature="0"
       style="fill:none;stroke:#000000"
       d="m -371.64296,453.20264 a 6.20079,6.20079 0 1 0 -12.40158,0 6.20079,6.20079 0 1 0 12.40158,0 z"
       id="path4184" />
    <path
       inkscape:connector-curvature="0"
       style="fill:none;stroke:#000000"
       d="m -407.07603,453.20264 a 6.20079,6.20079 0 1 0 -12.40158,0 6.20079,6.20079 0 1 0 12.40158,0 z"
       id="path4186" />
    <path
       inkscape:connector-curvature="0"
       style="fill:none;stroke:#000000"
       d="m -371.64296,630.36798 a 6.20079,6.20079 0 1 0 -12.40158,0 6.20079,6.20079 0 1 0 12.40158,0 z"
       id="path4188" />
    <path
       inkscape:connector-curvature="0"
       style="fill:none;stroke:#000000"
       d="m -407.07603,630.36798 a 6.20079,6.20079 0 1 0 -12.40158,0 6.20079,6.20079 0 1 0 12.40158,0 z"
       id="path4190" />
    <path
       inkscape:connector-curvature="0"
       style="fill:none;stroke:#000000"
       d="m 1316.2846,233.75956 a 6.20079,6.20079 0 1 0 -12.4015,0 6.20079,6.20079 0 1 0 12.4015,0 z"
       id="path4192" />
    <path
       inkscape:connector-curvature="0"
       style="fill:none;stroke:#000000"
       d="m 1174.5524,233.75956 a 6.200787,6.200787 0 1 0 -12.4016,0 6.200787,6.200787 0 1 0 12.4016,0 z"
       id="path4194" />
    <path
       inkscape:connector-curvature="0"
       style="fill:none;stroke:#000000"
       d="m 1316.2234,438.45502 a 6.20079,6.20079 0 1 0 -12.4016,0 6.20079,6.20079 0 1 0 12.4016,0 z"
       id="path4196" />
    <path
       inkscape:connector-curvature="0"
       style="fill:none;stroke:#000000"
       d="m 1183.3494,438.45502 a 6.200787,6.200787 0 1 0 -12.4016,0 6.200787,6.200787 0 1 0 12.4016,0 z"
       id="path4198" />
    <path
       inkscape:connector-curvature="0"
       style="fill:none;stroke:#000000"
       d="m 1316.2234,571.32908 a 6.20079,6.20079 0 1 0 -12.4016,0 6.20079,6.20079 0 1 0 12.4016,0 z"
       id="path4200" />
    <path
       inkscape:connector-curvature="0"
       style="fill:none;stroke:#000000"
       d="m 1183.3494,571.32908 a 6.200787,6.200787 0 1 0 -12.4016,0 6.200787,6.200787 0 1 0 12.4016,0 z"
       id="path4202" />
    <path
       inkscape:connector-curvature="0"
       style="fill:none;stroke:#000000"
       d="m 354.74638,450.92558 a 6.20079,6.20079 0 1 0 -12.40158,0 6.20079,6.20079 0 1 0 12.40158,0 z"
       id="path4204" />
    <path
       inkscape:connector-curvature="0"
       style="fill:none;stroke:#000000"
       d="m 526.59677,450.92558 a 6.2007875,6.2007875 0 1 0 -12.40157,0 6.2007875,6.2007875 0 0 0 12.40157,0 z"
       id="path4206" />
    <path
       inkscape:connector-curvature="0"
       style="fill:none;stroke:#000000"
       d="m 475.21882,635.17758 a 6.2007875,6.2007875 0 1 0 -12.40158,0 6.2007875,6.2007875 0 0 0 12.40158,0 z"
       id="path4208" />
    <path
       inkscape:connector-curvature="0"
       style="fill:none;stroke:#000000"
       d="m 376.00622,635.17758 a 6.20079,6.20079 0 1 0 -12.40158,0 6.20079,6.20079 0 1 0 12.40158,0 z"
       id="path4210" />
    <path
       inkscape:connector-curvature="0"
       style="fill:none;stroke:#000000"
       d="m 542.55791,369.19036 -248.03149,0 0,10.62992 248.03149,0 0,-10.62992 z"
       id="path4212" />
    <path
       inkscape:connector-curvature="0"
       style="fill:none;stroke:#000000"
       d="m 292.21656,707.87548 0,10.6299 248.03149,0 0,-10.6299 -248.03149,0 z"
       id="path4214" />
    <path
       inkscape:connector-curvature="0"
       style="fill:none;stroke:#000000"
       d="m 695.27445,510.92264 -10.98426,0 0,41.85984 10.98426,0 0,-41.85984 z"
       id="path4216" />
    <path
       inkscape:connector-curvature="0"
       style="fill:none;stroke:#000000"
       d="m 684.29019,617.22188 10.98426,0 0,-38.3989 -10.98426,0 0,38.3989 z"
       id="path4218" />
    <path
       inkscape:connector-curvature="0"
       style="fill:none;stroke:#000000"
       d="m 575.865,510.92264 10.98425,0 0,41.85984 -10.98425,0 0,-41.85984 z"
       id="path4220" />
    <path
       inkscape:connector-curvature="0"
       style="fill:none;stroke:#000000"
       d="m 586.84925,617.22188 -10.98425,0 0,-38.3989 10.98425,0 0,38.3989 z"
       id="path4222" />
    <path
       inkscape:connector-curvature="0"
       style="fill:none;stroke:#000000"
       d="m 1133.9295,353.58998 212.5985,0 0,-10.62992 -212.5985,0 0,10.62992 z"
       id="path4224" />
    <path
       inkscape:connector-curvature="0"
       style="fill:none;stroke:#000000"
       d="m 1141.5327,680.78358 212.5984,0 0,-10.63 -212.5984,0 0,10.63 z"
       id="path4226" />
    <path
       inkscape:connector-curvature="0"
       style="fill:none;stroke:#000000"
       d="m 1399.6294,590.75393 0,46.063 10.9842,0 0,-46.063 -10.9842,0 z"
       id="path4230" />
    <path
       inkscape:connector-curvature="0"
       style="fill:none;stroke:#000000"
       d="m 1088.527,636.81693 0,-46.063 -10.9842,0 0,46.063 10.9842,0 z"
       id="path4232" />
    <path
       sodipodi:nodetypes="ccsssccccccccccscccccccc"
       inkscape:connector-curvature="0"
       style="fill:none;stroke:#000000"
       d="m 983.85848,550.36308 -92.06198,0 c -10.93643,-100.07933 21.21593,-200.08608 88.42625,-275.041 67.21035,-74.95493 163.13245,-117.78064 263.80755,-117.78064 100.6751,0 196.5973,42.82571 263.8077,117.78064 67.2103,74.95492 99.3626,174.96167 88.4262,275.041 l -4.1054,0 -88.5827,0 -14.6554,-0.29923 0,40.69008 -10.9842,0 0,46.063 10.9842,0 0,128.66195 -0.1947,2.66385 c -65.8297,62.86253 -153.5926,98.17846 -245.1562,98.05945 -91.2411,-0.11859 -178.6168,-35.41294 -244.20573,-98.0313 l -0.1284,-1.42931 0,-129.92464 10.98423,0 0,-46.063 -10.98423,0 0,-40.69008 z"
       id="path4236" />
    <path
       inkscape:connector-curvature="0"
       style="fill:none;stroke:#000000"
       d="m 1514.7098,875.38348 45.7087,0"
       id="path4238" />
    <path
       inkscape:connector-curvature="0"
       style="fill:none;stroke:#000000"
       d="m 1560.4185,875.38348 0,88.5826"
       id="path4240" />
    <path
       inkscape:connector-curvature="0"
       style="fill:none;stroke:#000000"
       d="m 1514.7098,963.96608 0,-88.5826"
       id="path4242" />
    <path
       inkscape:connector-curvature="0"
       style="fill:none;stroke:#000000"
       d="m 1581.6847,963.75208 0,17.7166"
       id="path4244" />
    <path
       inkscape:connector-curvature="0"
       style="fill:none;stroke:#000000"
       d="m 1581.6847,981.46868 -88.5827,0"
       id="path4246" />
    <path
       inkscape:connector-curvature="0"
       style="fill:none;stroke:#000000"
       d="m 1493.102,981.46868 0,-17.7166"
       id="path4248" />
    <path
       inkscape:connector-curvature="0"
       style="fill:none;stroke:#000000"
       d="m 1493.102,963.75208 21.6078,0"
       id="path4250" />
    <path
       inkscape:connector-curvature="0"
       style="fill:none;stroke:#000000"
       d="m 1560.4185,963.75208 21.2662,0"
       id="path4252" />
    <path
       inkscape:connector-curvature="0"
       style="fill:none;stroke:#000000"
       d="m 1541.893,886.45118 a 5.315,5.315 0 1 0 -10.63,0 5.315,5.315 0 0 0 10.63,0 z"
       id="path4254" />
    <path
       inkscape:connector-curvature="0"
       style="fill:none;stroke:#000000"
       d="m 1411.9717,886.45118 a 5.314961,5.314961 0 1 0 -10.6299,0 5.314961,5.314961 0 1 0 10.6299,0 z"
       id="path4256" />
    <path
       inkscape:connector-curvature="0"
       style="fill:none;stroke:#000000"
       d="m 1451.7634,981.46868 -88.5827,0"
       id="path4258" />
    <path
       inkscape:connector-curvature="0"
       style="fill:none;stroke:#000000"
       d="m 1451.7634,963.75208 0,17.7166"
       id="path4260" />
    <path
       inkscape:connector-curvature="0"
       style="fill:none;stroke:#000000"
       d="m 1363.1807,963.75208 21.6078,0"
       id="path4262" />
    <path
       inkscape:connector-curvature="0"
       style="fill:none;stroke:#000000"
       d="m 1384.7885,963.96608 0,-88.5826"
       id="path4264" />
    <path
       inkscape:connector-curvature="0"
       style="fill:none;stroke:#000000"
       d="m 1363.1807,981.46868 0,-17.7166"
       id="path4266" />
    <path
       inkscape:connector-curvature="0"
       style="fill:none;stroke:#000000"
       d="m 1430.4972,875.38348 0,88.5826"
       id="path4268" />
    <path
       inkscape:connector-curvature="0"
       style="fill:none;stroke:#000000"
       d="m 1384.7885,875.38348 45.7087,0"
       id="path4270" />
    <path
       inkscape:connector-curvature="0"
       style="fill:none;stroke:#000000"
       d="m 1430.4972,963.75208 21.2662,0"
       id="path4272" />
    <path
       inkscape:connector-curvature="0"
       style="fill:none;stroke:#000000"
       d="m 1282.0504,886.45118 a 5.314961,5.314961 0 1 0 -10.6299,0 5.314961,5.314961 0 1 0 10.6299,0 z"
       id="path4274" />
    <path
       inkscape:connector-curvature="0"
       style="fill:none;stroke:#000000"
       d="m 1321.8421,981.46868 -88.5826,0"
       id="path4276" />
    <path
       inkscape:connector-curvature="0"
       style="fill:none;stroke:#000000"
       d="m 1321.8421,963.75208 0,17.7166"
       id="path4278" />
    <path
       inkscape:connector-curvature="0"
       style="fill:none;stroke:#000000"
       d="m 1233.2595,963.75208 21.6077,0"
       id="path4280" />
    <path
       inkscape:connector-curvature="0"
       style="fill:none;stroke:#000000"
       d="m 1254.8672,963.96608 0,-88.5826"
       id="path4282" />
    <path
       inkscape:connector-curvature="0"
       style="fill:none;stroke:#000000"
       d="m 1233.2595,981.46868 0,-17.7166"
       id="path4284" />
    <path
       inkscape:connector-curvature="0"
       style="fill:none;stroke:#000000"
       d="m 1300.5759,875.38348 0,88.5826"
       id="path4286" />
    <path
       inkscape:connector-curvature="0"
       style="fill:none;stroke:#000000"
       d="m 1254.8672,875.38348 45.7087,0"
       id="path4288" />
    <path
       inkscape:connector-curvature="0"
       style="fill:none;stroke:#000000"
       d="m 1300.5759,963.75208 21.2662,0"
       id="path4290" />
    <path
       inkscape:connector-curvature="0"
       style="fill:none;stroke:#000000"
       d="m 1152.1292,886.45118 a 5.314961,5.314961 0 1 0 -10.63,0 5.314961,5.314961 0 1 0 10.63,0 z"
       id="path4292" />
    <path
       inkscape:connector-curvature="0"
       style="fill:none;stroke:#000000"
       d="m 1191.9209,981.46868 -88.5827,0"
       id="path4294" />
    <path
       inkscape:connector-curvature="0"
       style="fill:none;stroke:#000000"
       d="m 1191.9209,963.75208 0,17.7166"
       id="path4296" />
    <path
       inkscape:connector-curvature="0"
       style="fill:none;stroke:#000000"
       d="m 1103.3382,963.75208 21.6078,0"
       id="path4298" />
    <path
       inkscape:connector-curvature="0"
       style="fill:none;stroke:#000000"
       d="m 1124.946,963.96608 0,-88.5826"
       id="path4300" />
    <path
       inkscape:connector-curvature="0"
       style="fill:none;stroke:#000000"
       d="m 1103.3382,981.46868 0,-17.7166"
       id="path4302" />
    <path
       inkscape:connector-curvature="0"
       style="fill:none;stroke:#000000"
       d="m 1170.6547,875.38348 0,88.5826"
       id="path4304" />
    <path
       inkscape:connector-curvature="0"
       style="fill:none;stroke:#000000"
       d="m 1124.946,875.38348 45.7087,0"
       id="path4306" />
    <path
       inkscape:connector-curvature="0"
       style="fill:none;stroke:#000000"
       d="m 1170.6547,963.75208 21.2662,0"
       id="path4308" />
    <path
       inkscape:connector-curvature="0"
       style="fill:none;stroke:#000000"
       d="m 256.66685,440.89041 -10.62992,0 0,212.59847 10.62992,0 0,-212.59847 z"
       id="path4310" />
    <path
       inkscape:connector-curvature="0"
       style="fill:none;stroke:#000000"
       d="m -352.78991,464.23456 -88.58268,0 0,155.90552 88.58268,0 0,-155.90552 z"
       id="path4312" />
  </g>
</svg>
